<?xml version="1.0" encoding="utf-8"?>
<!-- Generator: Adobe Illustrator 19.0.0, SVG Export Plug-In . SVG Version: 6.00 Build 0)  -->
<svg version="1.1" xmlns="http://www.w3.org/2000/svg" xmlns:xlink="http://www.w3.org/1999/xlink" x="0px" y="0px"
	 viewBox="0 0 1136.3 1267.2" style="enable-background:new 0 0 1136.3 1267.2;" xml:space="preserve">
<style type="text/css">
	.st0{fill:#804318;}
	.st1{fill:#FAE8E3;}
	.st2{fill:#D3CED2;}
	.st3{fill:#E7DBDD;}
	.st4{fill:#656160;}
	.st5{fill:#1A3540;}
	.st6{fill:#18343F;}
	.st7{fill:#DF183C;}
	.st8{fill:#2E5570;}
</style>
<g>
	<path class="st0" d="M634.1,43.4c0,0-126.4-121.4-310.7,41.9c-184.3,163.2-63.2,294.9-84.3,363.3c-21.1,68.5-131.6,63.2-131.6,179
		c0,115.8,100,136.9,79,221.2c-21.1,84.3-328,155.1-106.8,418.4l972.4-11.1c0,0,94.7,50.8,83.3-112.4
		C1123.8,980.4,960.6,959.4,960.6,854c0-105.3,48.5-105.7,47.4-192.7c-2.1-166.7-95.9-137.5-90.6-227
		C922.7,344.8,944.8,1.5,634.1,43.4z"/>
	<g>
		<path class="st1" d="M799.9,1043.8L483.8,865.4c-1.7,41-11.7,84.8-40.1,116.8c-34.4,38.7-66.1,46.2-104.4,51.3
			c70.2,38.4,152.3,60.5,240.2,60.5C659.3,1094,734.3,1075.8,799.9,1043.8z"/>
		<path class="st2" d="M715.3,982.2c-71-79.9-26.6-233.8-26.6-233.8h-61.4h-45.1H470.4c0,0,16,55.4,13.4,117l316.1,178.4
			c6.7-3.3,13.3-6.7,19.8-10.3C781.4,1028.4,749.8,1020.9,715.3,982.2z"/>
	</g>
	<g>
		<path class="st1" d="M579.5,123.9c-155.2,0-281,160.3-281,358.1c0,197.8,125.8,358.1,281,358.1l0,0V123.9L579.5,123.9z"/>
		<path class="st3" d="M860.6,482c0-197.8-125.8-358.1-281-358.1v716.2C734.8,840.1,860.6,679.8,860.6,482z"/>
	</g>
	<path class="st0" d="M694.9,247.9c0,0-99.4,154.5-389.4,154.5c0,0-13.5-309.1,274.1-309.1c287.6,0,295.9,288,295.9,288
		S820.2,328.6,694.9,247.9z"/>
	<g>
		<g>
			<g>
				<path class="st4" d="M862,445.3l-2-21.9l-44.3-1.2l-9.7,0.1l-1-1c0,0-163.2-15.3-209.3,24.8l-44.2-0.2
					c-43.8-41.6-211.6-23.4-211.6-23.4l-1,1l-9.7,0.1l-30.2,0.2l0.2,28l21.1-0.2c-21.1,77.8,35.4,132.5,117.6,130
					c79.9-2.4,108.3-92.9,112.4-107.7l44.6-0.1c0,0,27.4,106.7,114.5,108c82.3,1.3,138-54.4,115.5-131.9L862,445.3z M523.2,471.7
					l-1.1,5.2c0,0-20,83-87.5,85.1c-67.1,2-112.1-45.1-88-110.6l1.9-2.8l2.3-2.2l7.8-7.9c0,0,130.1-14.1,164.1,18.1l0.8,5.6
					L523.2,471.7z M712.5,562.2c-67.5-1-88.8-83.7-88.8-83.7l-1.1-5.2l-0.4-9.2l0.7-5.7c33.5-32.8,163.8-20.6,163.8-20.6l7.9,7.7
					l2.4,2.3l1.9,2.5C824,515.4,779.7,563.2,712.5,562.2z"/>
			</g>
		</g>
	</g>
	<g>
		<path class="st5" d="M637.7,737.5c-9-19.7-51.5-22-51.5-22s-20.8-6.6-45.5,10.3c-24.8,16.9-4,40.7-4,40.7s9.9,14.9,53.5,13.9
			c35.6-0.8,44.8-11.5,47-15.4C638.4,752.7,638.4,743.9,637.7,737.5z"/>
		<path class="st6" d="M886.2,625c-10.9-21.8-34.2,0-34.2,0c-61.8,72.4-214.2,112.7-214.2,112.7c0,0,0-0.1-0.1-0.1
			c0.7,6.4,0.7,15.2-0.6,27.3c0.5-0.9,0.6-1.4,0.6-1.4C726,759.4,897.1,646.8,886.2,625z"/>
	</g>
	<g>
		<g>
			<g>
				<g>
					<g>
						<g>
							<path class="st5" d="M274.5,357.3c0,0,52.1-261.8,302.4-261.8c250.3,0,316.4,227.9,316.4,227.9l-38,4
								c0,0-62.1-171.9-271.4-171.9c-209.3,0-283.4,201.9-283.4,201.9H274.5z"/>
						</g>
					</g>
				</g>
			</g>
		</g>
	</g>
	<g>
		<path class="st7" d="M1062.4,1188.8c-3.1-10.9-7-21.9-11.9-32.5l-6.1-16.8l-3-0.5c-14.6-24.5-35.7-46.5-65.7-62.2
			c-67.1-35.1-115.3-37.9-156-43.4c-6.5,3.6-13.1,7-19.8,10.3c-65.6,32.1-140.7,50.3-220.4,50.3c-87.8,0-170-22.1-240.2-60.5
			c-40.7,5.5-89,8.3-156,43.4c-66,34.5-88.6,99.3-95,154.9l-13,35.4h1015.8L1062.4,1188.8z"/>
	</g>
	<path class="st8" d="M859.4,432.9c0,0-21.9,183.6-30,194.6c0,0,67.5,27.3,82.7-28.3l23.1-96.3c0,0,5.3-34.5-32-59.5l-36.8-8.8"/>
</g>
</svg>
