<?xml version="1.0" encoding="utf-8"?>
<!-- Generator: Adobe Illustrator 19.0.0, SVG Export Plug-In . SVG Version: 6.00 Build 0)  -->
<svg version="1.1" xmlns="http://www.w3.org/2000/svg" xmlns:xlink="http://www.w3.org/1999/xlink" x="0px" y="0px"
	 viewBox="0 0 800 800" style="enable-background:new 0 0 800 800;" xml:space="preserve">
<style type="text/css">
	.st0{display:none;}
	.st1{display:inline;fill:url(#SVGID_1_);}
	.st2{display:inline;}
	.st3{fill:#4B4B4B;}
	.st4{opacity:0.1;clip-path:url(#SVGID_3_);}
	.st5{clip-path:url(#SVGID_3_);}
	.st6{fill:none;stroke:#333333;stroke-width:6.6459;stroke-linecap:round;stroke-miterlimit:10;}
	.st7{fill:#333333;}
	.st8{fill:#4D4D4D;}
	.st9{fill:#F6D2A7;}
	.st10{fill:#801A1E;}
	.st11{fill:#C0272D;}
	.st12{fill:#E8C090;}
	.st13{fill:#EFEFEF;}
	.st14{fill:#C9C9C9;}
	.st15{fill:#F1F1F1;}
	.st16{fill:#002C3D;}
</style>
<g id="Background" class="st0">
	
		<radialGradient id="SVGID_1_" cx="399.7911" cy="399.7961" r="563.4038" gradientTransform="matrix(1.0001 0 0 1.0001 0.1687 0.1639)" gradientUnits="userSpaceOnUse">
		<stop  offset="0" style="stop-color:#FFFFFF;stop-opacity:0"/>
		<stop  offset="0.129" style="stop-color:#FBFBFB;stop-opacity:3.869819e-002"/>
		<stop  offset="0.2617" style="stop-color:#EFEFEF;stop-opacity:7.850212e-002"/>
		<stop  offset="0.3961" style="stop-color:#DADADA;stop-opacity:0.1188"/>
		<stop  offset="0.5317" style="stop-color:#BDBEBD;stop-opacity:0.1595"/>
		<stop  offset="0.6683" style="stop-color:#989998;stop-opacity:0.2005"/>
		<stop  offset="0.8057" style="stop-color:#6B6C6A;stop-opacity:0.2417"/>
		<stop  offset="0.9413" style="stop-color:#363735;stop-opacity:0.2824"/>
		<stop  offset="1" style="stop-color:#1D1E1C;stop-opacity:0.3"/>
	</radialGradient>
	<rect x="0" class="st1" width="800" height="800"/>
	<g class="st2">
		<g>
			<path class="st3" d="M288.5,30.6v-0.3c-0.3,0.4-0.7,0.7-1,1c-0.3,0.3-0.7,0.4-1.1,0.6c-0.4,0.1-0.8,0.2-1.3,0.2
				c-0.6,0-1.2-0.1-1.7-0.4c-0.5-0.3-1-0.6-1.4-1.1c-0.4-0.5-0.7-1.1-0.9-1.7c-0.2-0.7-0.3-1.4-0.3-2.1c0-1.6,0.4-2.9,1.2-3.8
				c0.8-0.9,1.8-1.4,3.1-1.4c0.7,0,1.4,0.1,1.9,0.4c0.5,0.3,1,0.7,1.5,1.2v-3.8c0-0.5,0.1-0.9,0.3-1.2c0.2-0.3,0.5-0.4,0.9-0.4
				c0.4,0,0.7,0.1,0.9,0.4c0.2,0.3,0.3,0.6,0.3,1.1v11.4c0,0.5-0.1,0.9-0.3,1.1c-0.2,0.2-0.5,0.4-0.9,0.4c-0.4,0-0.6-0.1-0.9-0.4
				C288.6,31.4,288.5,31,288.5,30.6z M283.4,26.7c0,0.7,0.1,1.3,0.3,1.8c0.2,0.5,0.5,0.9,0.9,1.1c0.4,0.3,0.8,0.4,1.2,0.4
				c0.5,0,0.9-0.1,1.2-0.4c0.4-0.2,0.7-0.6,0.9-1.1c0.2-0.5,0.3-1.1,0.3-1.8c0-0.7-0.1-1.3-0.3-1.8c-0.2-0.5-0.5-0.9-0.9-1.1
				c-0.4-0.3-0.8-0.4-1.3-0.4c-0.5,0-0.9,0.1-1.3,0.4c-0.4,0.3-0.7,0.7-0.9,1.2C283.5,25.5,283.4,26.1,283.4,26.7z"/>
			<path class="st3" d="M299.9,27.4h-5.1c0,0.6,0.1,1.1,0.4,1.6c0.2,0.4,0.5,0.8,0.9,1c0.4,0.2,0.8,0.3,1.3,0.3c0.3,0,0.6,0,0.9-0.1
				c0.3-0.1,0.5-0.2,0.7-0.3c0.2-0.2,0.5-0.3,0.7-0.5c0.2-0.2,0.5-0.4,0.8-0.7c0.1-0.1,0.3-0.2,0.6-0.2c0.3,0,0.5,0.1,0.6,0.2
				c0.2,0.1,0.2,0.3,0.2,0.6c0,0.2-0.1,0.5-0.3,0.8c-0.2,0.3-0.5,0.6-0.8,0.9c-0.4,0.3-0.8,0.5-1.4,0.7c-0.6,0.2-1.2,0.3-1.9,0.3
				c-1.7,0-3-0.5-3.9-1.4c-0.9-0.9-1.4-2.2-1.4-3.9c0-0.8,0.1-1.5,0.3-2.1c0.2-0.7,0.6-1.2,1-1.7c0.4-0.5,1-0.8,1.6-1.1
				c0.6-0.3,1.3-0.4,2.1-0.4c1,0,1.9,0.2,2.6,0.6c0.7,0.4,1.3,1,1.6,1.7c0.4,0.7,0.5,1.4,0.5,2.1c0,0.7-0.2,1.1-0.6,1.3
				C301.1,27.3,300.6,27.4,299.9,27.4z M294.8,25.9h4.7c-0.1-0.9-0.3-1.6-0.7-2c-0.4-0.4-1-0.7-1.6-0.7c-0.6,0-1.2,0.2-1.6,0.7
				C295.2,24.4,294.9,25.1,294.8,25.9z"/>
			<path class="st3" d="M311.7,28.6c0,0.7-0.2,1.3-0.5,1.8c-0.3,0.5-0.9,0.9-1.5,1.2c-0.7,0.3-1.5,0.4-2.5,0.4
				c-0.9,0-1.7-0.1-2.4-0.4c-0.7-0.3-1.2-0.6-1.5-1.1c-0.3-0.4-0.5-0.9-0.5-1.3c0-0.3,0.1-0.5,0.3-0.7c0.2-0.2,0.5-0.3,0.8-0.3
				c0.3,0,0.5,0.1,0.6,0.2c0.1,0.1,0.3,0.3,0.4,0.6c0.3,0.5,0.6,0.8,1,1c0.4,0.2,0.9,0.3,1.5,0.3c0.5,0,0.9-0.1,1.3-0.3
				c0.3-0.2,0.5-0.5,0.5-0.8c0-0.5-0.2-0.8-0.5-1c-0.3-0.2-0.9-0.4-1.7-0.6c-0.9-0.2-1.6-0.5-2.2-0.7c-0.6-0.2-1-0.6-1.3-1
				c-0.3-0.4-0.5-0.9-0.5-1.5c0-0.5,0.2-1,0.5-1.5c0.3-0.5,0.8-0.8,1.4-1.1c0.6-0.3,1.3-0.4,2.2-0.4c0.7,0,1.3,0.1,1.8,0.2
				c0.5,0.1,1,0.3,1.3,0.6c0.4,0.2,0.6,0.5,0.8,0.8c0.2,0.3,0.3,0.6,0.3,0.8c0,0.3-0.1,0.5-0.3,0.7c-0.2,0.2-0.5,0.3-0.9,0.3
				c-0.3,0-0.5-0.1-0.7-0.2c-0.2-0.2-0.4-0.4-0.6-0.7c-0.2-0.3-0.4-0.5-0.7-0.6c-0.3-0.2-0.6-0.2-1.1-0.2c-0.5,0-0.9,0.1-1.2,0.3
				c-0.3,0.2-0.5,0.4-0.5,0.7c0,0.3,0.1,0.5,0.3,0.7c0.2,0.2,0.5,0.3,0.9,0.4c0.4,0.1,0.9,0.3,1.6,0.4c0.8,0.2,1.5,0.4,2,0.7
				c0.5,0.3,0.9,0.6,1.2,1C311.6,27.8,311.7,28.2,311.7,28.6z"/>
			<path class="st3" d="M314.4,20.3c-0.4,0-0.7-0.1-0.9-0.3c-0.3-0.2-0.4-0.5-0.4-0.9c0-0.4,0.1-0.7,0.4-0.9
				c0.3-0.2,0.6-0.4,0.9-0.4c0.3,0,0.6,0.1,0.9,0.3c0.3,0.2,0.4,0.5,0.4,0.9c0,0.4-0.1,0.7-0.4,0.9C315,20.2,314.7,20.3,314.4,20.3z
				 M315.6,23v7.5c0,0.5-0.1,0.9-0.4,1.2c-0.2,0.3-0.6,0.4-0.9,0.4c-0.4,0-0.7-0.1-0.9-0.4c-0.2-0.3-0.4-0.7-0.4-1.2V23
				c0-0.5,0.1-0.9,0.4-1.2c0.2-0.3,0.5-0.4,0.9-0.4c0.4,0,0.7,0.1,0.9,0.4C315.5,22.1,315.6,22.5,315.6,23z"/>
			<path class="st3" d="M327,23.4v7.5c0,0.9-0.1,1.6-0.3,2.2c-0.2,0.6-0.5,1.1-0.9,1.5c-0.4,0.4-0.9,0.7-1.6,0.9
				c-0.7,0.2-1.5,0.3-2.4,0.3c-0.9,0-1.7-0.1-2.4-0.4c-0.7-0.3-1.2-0.6-1.6-1c-0.4-0.4-0.6-0.8-0.6-1.2c0-0.3,0.1-0.6,0.3-0.8
				c0.2-0.2,0.5-0.3,0.8-0.3c0.4,0,0.7,0.2,1,0.5c0.1,0.2,0.3,0.3,0.4,0.5c0.1,0.2,0.3,0.3,0.5,0.4c0.2,0.1,0.4,0.2,0.7,0.3
				c0.3,0.1,0.5,0.1,0.9,0.1c0.7,0,1.2-0.1,1.6-0.3c0.4-0.2,0.6-0.4,0.8-0.8c0.1-0.3,0.2-0.7,0.3-1.1c0-0.4,0-1,0.1-1.8
				c-0.4,0.6-0.9,1-1.4,1.3c-0.5,0.3-1.1,0.4-1.9,0.4c-0.9,0-1.6-0.2-2.3-0.7c-0.6-0.4-1.1-1.1-1.5-1.9c-0.3-0.8-0.5-1.7-0.5-2.8
				c0-0.8,0.1-1.5,0.3-2.1c0.2-0.6,0.5-1.2,0.9-1.6c0.4-0.4,0.8-0.8,1.4-1c0.5-0.2,1.1-0.3,1.7-0.3c0.7,0,1.4,0.1,1.9,0.4
				c0.5,0.3,1,0.7,1.5,1.3v-0.4c0-0.4,0.1-0.8,0.3-1c0.2-0.2,0.5-0.4,0.9-0.4c0.5,0,0.8,0.2,1,0.5C326.9,22.3,327,22.8,327,23.4z
				 M319.5,26.7c0,1.1,0.2,1.8,0.7,2.4c0.5,0.5,1.1,0.8,1.8,0.8c0.4,0,0.8-0.1,1.2-0.3c0.4-0.2,0.7-0.6,0.9-1c0.2-0.5,0.4-1,0.4-1.7
				c0-1.1-0.2-1.9-0.7-2.5c-0.5-0.6-1.1-0.9-1.8-0.9c-0.7,0-1.3,0.3-1.8,0.8C319.7,24.8,319.5,25.6,319.5,26.7z"/>
			<path class="st3" d="M331.1,22.9v0.3c0.5-0.6,1-1,1.5-1.3c0.5-0.3,1.2-0.4,1.9-0.4c0.7,0,1.3,0.2,1.8,0.4
				c0.5,0.3,0.9,0.7,1.2,1.3c0.2,0.3,0.3,0.7,0.3,1c0.1,0.4,0.1,0.8,0.1,1.4v4.8c0,0.5-0.1,0.9-0.4,1.2c-0.2,0.3-0.5,0.4-0.9,0.4
				c-0.4,0-0.7-0.1-0.9-0.4c-0.2-0.3-0.4-0.7-0.4-1.2v-4.3c0-0.9-0.1-1.5-0.4-2c-0.2-0.5-0.7-0.7-1.4-0.7c-0.5,0-0.9,0.1-1.3,0.4
				c-0.4,0.3-0.7,0.7-0.8,1.1c-0.1,0.4-0.2,1.1-0.2,2.2v3.2c0,0.5-0.1,0.9-0.4,1.2c-0.2,0.3-0.6,0.4-0.9,0.4c-0.4,0-0.7-0.1-0.9-0.4
				c-0.2-0.3-0.4-0.7-0.4-1.2V23c0-0.5,0.1-0.9,0.3-1.1c0.2-0.2,0.5-0.4,0.9-0.4c0.2,0,0.4,0.1,0.6,0.2c0.2,0.1,0.3,0.3,0.4,0.5
				C331.1,22.4,331.1,22.6,331.1,22.9z"/>
			<path class="st3" d="M346.9,27.4h-5.1c0,0.6,0.1,1.1,0.4,1.6c0.2,0.4,0.5,0.8,0.9,1c0.4,0.2,0.8,0.3,1.3,0.3c0.3,0,0.6,0,0.9-0.1
				c0.3-0.1,0.5-0.2,0.7-0.3c0.2-0.2,0.5-0.3,0.7-0.5c0.2-0.2,0.5-0.4,0.8-0.7c0.1-0.1,0.3-0.2,0.6-0.2c0.3,0,0.5,0.1,0.6,0.2
				c0.2,0.1,0.2,0.3,0.2,0.6c0,0.2-0.1,0.5-0.3,0.8c-0.2,0.3-0.5,0.6-0.8,0.9c-0.4,0.3-0.8,0.5-1.4,0.7c-0.6,0.2-1.2,0.3-1.9,0.3
				c-1.7,0-3-0.5-3.9-1.4c-0.9-0.9-1.4-2.2-1.4-3.9c0-0.8,0.1-1.5,0.3-2.1c0.2-0.7,0.6-1.2,1-1.7c0.4-0.5,1-0.8,1.6-1.1
				c0.6-0.3,1.3-0.4,2.1-0.4c1,0,1.9,0.2,2.6,0.6c0.7,0.4,1.3,1,1.6,1.7c0.4,0.7,0.5,1.4,0.5,2.1c0,0.7-0.2,1.1-0.6,1.3
				C348.1,27.3,347.6,27.4,346.9,27.4z M341.8,25.9h4.7c-0.1-0.9-0.3-1.6-0.7-2c-0.4-0.4-1-0.7-1.6-0.7c-0.6,0-1.2,0.2-1.6,0.7
				C342.2,24.4,341.9,25.1,341.8,25.9z"/>
			<path class="st3" d="M357.5,30.6v-0.3c-0.3,0.4-0.7,0.7-1,1c-0.3,0.3-0.7,0.4-1.1,0.6c-0.4,0.1-0.8,0.2-1.3,0.2
				c-0.6,0-1.2-0.1-1.7-0.4c-0.5-0.3-1-0.6-1.4-1.1c-0.4-0.5-0.7-1.1-0.9-1.7c-0.2-0.7-0.3-1.4-0.3-2.1c0-1.6,0.4-2.9,1.2-3.8
				c0.8-0.9,1.8-1.4,3.1-1.4c0.7,0,1.4,0.1,1.9,0.4c0.5,0.3,1,0.7,1.5,1.2v-3.8c0-0.5,0.1-0.9,0.3-1.2c0.2-0.3,0.5-0.4,0.9-0.4
				c0.4,0,0.7,0.1,0.9,0.4c0.2,0.3,0.3,0.6,0.3,1.1v11.4c0,0.5-0.1,0.9-0.3,1.1c-0.2,0.2-0.5,0.4-0.9,0.4c-0.4,0-0.6-0.1-0.9-0.4
				C357.6,31.4,357.5,31,357.5,30.6z M352.4,26.7c0,0.7,0.1,1.3,0.3,1.8c0.2,0.5,0.5,0.9,0.9,1.1c0.4,0.3,0.8,0.4,1.2,0.4
				c0.5,0,0.9-0.1,1.2-0.4c0.4-0.2,0.7-0.6,0.9-1.1c0.2-0.5,0.3-1.1,0.3-1.8c0-0.7-0.1-1.3-0.3-1.8c-0.2-0.5-0.5-0.9-0.9-1.1
				c-0.4-0.3-0.8-0.4-1.3-0.4c-0.5,0-0.9,0.1-1.3,0.4c-0.4,0.3-0.7,0.7-0.9,1.2C352.5,25.5,352.4,26.1,352.4,26.7z"/>
			<path class="st3" d="M368.1,19.1v4c0.5-0.5,1-0.9,1.5-1.2c0.5-0.3,1.1-0.4,1.9-0.4c0.9,0,1.6,0.2,2.3,0.6c0.6,0.4,1.2,1,1.5,1.8
				c0.4,0.8,0.5,1.7,0.5,2.8c0,0.8-0.1,1.5-0.3,2.2c-0.2,0.7-0.5,1.2-0.9,1.7c-0.4,0.5-0.8,0.9-1.4,1.1c-0.5,0.3-1.1,0.4-1.8,0.4
				c-0.4,0-0.8,0-1.1-0.1c-0.4-0.1-0.7-0.2-0.9-0.4c-0.2-0.2-0.5-0.3-0.6-0.5c-0.2-0.2-0.4-0.4-0.7-0.7v0.3c0,0.5-0.1,0.9-0.4,1.1
				c-0.2,0.3-0.5,0.4-0.9,0.4c-0.4,0-0.7-0.1-0.9-0.4c-0.2-0.3-0.3-0.6-0.3-1.1V19.2c0-0.5,0.1-0.9,0.3-1.2c0.2-0.3,0.5-0.4,0.9-0.4
				c0.4,0,0.7,0.1,0.9,0.4C368,18.3,368.1,18.6,368.1,19.1z M368.2,26.8c0,1,0.2,1.8,0.7,2.4c0.5,0.6,1.1,0.8,1.9,0.8
				c0.7,0,1.2-0.3,1.7-0.9c0.5-0.6,0.7-1.4,0.7-2.4c0-0.7-0.1-1.3-0.3-1.8c-0.2-0.5-0.5-0.9-0.8-1.1c-0.4-0.3-0.8-0.4-1.3-0.4
				c-0.5,0-0.9,0.1-1.3,0.4c-0.4,0.3-0.7,0.7-0.9,1.2C368.3,25.5,368.2,26.1,368.2,26.8z"/>
			<path class="st3" d="M379.1,32.4l0.2-0.6l-3.2-8c-0.2-0.5-0.3-0.8-0.3-1c0-0.2,0.1-0.4,0.2-0.6c0.1-0.2,0.3-0.3,0.5-0.5
				c0.2-0.1,0.4-0.2,0.6-0.2c0.4,0,0.7,0.1,0.8,0.4c0.2,0.2,0.4,0.6,0.5,1l2.2,6.4l2.1-5.9c0.2-0.5,0.3-0.9,0.4-1.1
				c0.1-0.3,0.3-0.5,0.4-0.5c0.1-0.1,0.4-0.1,0.6-0.1c0.2,0,0.4,0.1,0.6,0.2c0.2,0.1,0.3,0.2,0.4,0.4c0.1,0.2,0.1,0.4,0.1,0.6
				c0,0.1-0.1,0.3-0.1,0.5c-0.1,0.2-0.1,0.4-0.2,0.7l-3.4,8.9c-0.3,0.8-0.6,1.4-0.9,1.8c-0.3,0.4-0.6,0.8-1.1,1
				c-0.5,0.2-1.1,0.4-1.9,0.4c-0.8,0-1.3-0.1-1.7-0.2c-0.4-0.2-0.6-0.5-0.6-0.9c0-0.3,0.1-0.5,0.3-0.7c0.2-0.2,0.4-0.2,0.8-0.2
				c0.1,0,0.3,0,0.4,0.1c0.2,0,0.3,0.1,0.4,0.1c0.3,0,0.5,0,0.7-0.1c0.2-0.1,0.3-0.2,0.5-0.5C378.8,33.1,378.9,32.8,379.1,32.4z"/>
		</g>
		<g>
			<path class="st3" d="M416.7,21.7h0.6v-0.8c0-0.8,0.1-1.5,0.3-1.9c0.2-0.5,0.6-0.8,1-1c0.5-0.2,1.2-0.3,2-0.3
				c1.5,0,2.3,0.4,2.3,1.1c0,0.2-0.1,0.4-0.2,0.6c-0.2,0.2-0.3,0.3-0.6,0.3c-0.1,0-0.3,0-0.5-0.1c-0.2,0-0.5-0.1-0.6-0.1
				c-0.5,0-0.8,0.1-0.9,0.4c-0.1,0.3-0.2,0.7-0.2,1.2v0.6h0.6c1,0,1.5,0.3,1.5,0.9c0,0.4-0.1,0.7-0.4,0.8c-0.3,0.1-0.6,0.2-1.1,0.2
				h-0.6v6.9c0,0.5-0.1,0.9-0.4,1.2c-0.2,0.3-0.6,0.4-0.9,0.4c-0.4,0-0.7-0.1-0.9-0.4c-0.2-0.3-0.4-0.7-0.4-1.2v-6.9h-0.7
				c-0.4,0-0.7-0.1-0.9-0.3c-0.2-0.2-0.3-0.4-0.3-0.7C415.4,22,415.8,21.7,416.7,21.7"/>
			<path class="st3" d="M425.2,28.3v2.2c0,0.5-0.1,0.9-0.4,1.2c-0.2,0.3-0.6,0.4-0.9,0.4c-0.4,0-0.7-0.1-0.9-0.4
				c-0.2-0.3-0.4-0.7-0.4-1.2v-7.2c0-1.2,0.4-1.7,1.3-1.7c0.4,0,0.7,0.1,0.9,0.4c0.2,0.3,0.3,0.7,0.3,1.2c0.3-0.5,0.6-0.9,0.9-1.2
				c0.3-0.3,0.8-0.4,1.3-0.4c0.5,0,1.1,0.1,1.6,0.4c0.5,0.3,0.8,0.6,0.8,1.1c0,0.3-0.1,0.6-0.3,0.8c-0.2,0.2-0.5,0.3-0.7,0.3
				c-0.1,0-0.3-0.1-0.7-0.2c-0.4-0.1-0.7-0.2-1-0.2c-0.4,0-0.7,0.1-0.9,0.3c-0.2,0.2-0.4,0.5-0.6,0.9c-0.1,0.4-0.2,0.9-0.3,1.4
				C425.2,26.9,425.2,27.5,425.2,28.3"/>
			<path class="st3" d="M437.1,27.4H432c0,0.6,0.1,1.1,0.4,1.6c0.2,0.4,0.5,0.8,0.9,1c0.4,0.2,0.8,0.3,1.3,0.3c0.3,0,0.6,0,0.8-0.1
				c0.3-0.1,0.5-0.2,0.7-0.3c0.2-0.2,0.5-0.3,0.7-0.5c0.2-0.2,0.5-0.4,0.8-0.7c0.1-0.1,0.3-0.2,0.6-0.2c0.3,0,0.5,0.1,0.6,0.2
				c0.2,0.1,0.2,0.3,0.2,0.6c0,0.2-0.1,0.5-0.3,0.8c-0.2,0.3-0.5,0.6-0.8,0.9c-0.4,0.3-0.8,0.5-1.4,0.7c-0.6,0.2-1.2,0.3-1.9,0.3
				c-1.7,0-3-0.5-3.9-1.4c-0.9-1-1.4-2.2-1.4-3.9c0-0.8,0.1-1.5,0.3-2.1c0.2-0.7,0.6-1.2,1-1.7c0.4-0.5,1-0.8,1.6-1.1
				c0.6-0.3,1.3-0.4,2.1-0.4c1,0,1.9,0.2,2.6,0.6c0.7,0.4,1.3,1,1.6,1.7c0.4,0.7,0.5,1.4,0.5,2.1c0,0.6-0.2,1.1-0.6,1.3
				C438.3,27.3,437.8,27.4,437.1,27.4 M432,25.9h4.7c-0.1-0.9-0.3-1.5-0.7-2c-0.4-0.4-1-0.7-1.6-0.7c-0.6,0-1.2,0.2-1.6,0.7
				C432.4,24.4,432.1,25.1,432,25.9"/>
			<path class="st3" d="M447.9,27.4h-5.1c0,0.6,0.1,1.1,0.4,1.6c0.2,0.4,0.5,0.8,0.9,1c0.4,0.2,0.8,0.3,1.3,0.3c0.3,0,0.6,0,0.8-0.1
				c0.3-0.1,0.5-0.2,0.8-0.3c0.2-0.2,0.5-0.3,0.7-0.5c0.2-0.2,0.5-0.4,0.8-0.7c0.1-0.1,0.3-0.2,0.6-0.2c0.3,0,0.5,0.1,0.7,0.2
				c0.2,0.1,0.2,0.3,0.2,0.6c0,0.2-0.1,0.5-0.3,0.8c-0.2,0.3-0.5,0.6-0.8,0.9c-0.4,0.3-0.8,0.5-1.4,0.7c-0.6,0.2-1.2,0.3-1.9,0.3
				c-1.7,0-3-0.5-3.9-1.4c-0.9-1-1.4-2.2-1.4-3.9c0-0.8,0.1-1.5,0.3-2.1c0.2-0.7,0.6-1.2,1-1.7c0.4-0.5,1-0.8,1.6-1.1
				c0.6-0.3,1.4-0.4,2.1-0.4c1,0,1.9,0.2,2.6,0.6c0.7,0.4,1.3,1,1.6,1.7c0.4,0.7,0.5,1.4,0.5,2.1c0,0.6-0.2,1.1-0.6,1.3
				C449.1,27.3,448.5,27.4,447.9,27.4 M442.8,25.9h4.7c-0.1-0.9-0.3-1.5-0.7-2c-0.4-0.4-1-0.7-1.6-0.7c-0.6,0-1.2,0.2-1.6,0.7
				C443.1,24.4,442.9,25.1,442.8,25.9"/>
			<path class="st3" d="M453.5,23v0.3c0.5-0.6,1-1,1.5-1.3c0.5-0.3,1.1-0.4,1.8-0.4c0.8,0,1.5,0.2,2.2,0.6c0.7,0.4,1.2,1,1.6,1.8
				c0.4,0.8,0.6,1.7,0.6,2.8c0,0.8-0.1,1.5-0.3,2.2c-0.2,0.7-0.5,1.2-0.9,1.7c-0.4,0.4-0.9,0.8-1.4,1c-0.5,0.2-1.1,0.4-1.7,0.4
				c-0.7,0-1.4-0.1-1.9-0.4c-0.5-0.3-1-0.7-1.4-1.3v3.9c0,1.1-0.4,1.7-1.2,1.7c-0.5,0-0.8-0.1-1-0.4c-0.2-0.3-0.2-0.7-0.2-1.3V23
				c0-0.5,0.1-0.9,0.3-1.1c0.2-0.2,0.5-0.4,0.9-0.4c0.4,0,0.7,0.1,0.9,0.4C453.4,22.1,453.5,22.5,453.5,23 M458.6,26.7
				c0-0.7-0.1-1.3-0.3-1.8c-0.2-0.5-0.5-0.9-0.9-1.1c-0.4-0.3-0.8-0.4-1.2-0.4c-0.7,0-1.3,0.3-1.8,0.8c-0.5,0.6-0.7,1.4-0.7,2.5
				c0,1,0.2,1.8,0.7,2.4c0.5,0.6,1.1,0.9,1.8,0.9c0.4,0,0.8-0.1,1.2-0.4c0.4-0.3,0.7-0.6,0.9-1.1C458.5,28,458.6,27.4,458.6,26.7"/>
			<path class="st3" d="M463.9,20.3c-0.4,0-0.7-0.1-0.9-0.3c-0.3-0.2-0.4-0.5-0.4-0.9c0-0.4,0.1-0.7,0.4-0.9
				c0.3-0.2,0.6-0.4,0.9-0.4c0.3,0,0.6,0.1,0.9,0.3c0.3,0.2,0.4,0.5,0.4,0.9c0,0.4-0.1,0.7-0.4,0.9
				C464.5,20.2,464.2,20.3,463.9,20.3 M465.1,23v7.5c0,0.5-0.1,0.9-0.4,1.2c-0.3,0.3-0.6,0.4-0.9,0.4c-0.4,0-0.7-0.1-0.9-0.4
				c-0.2-0.3-0.4-0.7-0.4-1.2V23c0-0.5,0.1-0.9,0.4-1.2c0.2-0.3,0.5-0.4,0.9-0.4c0.4,0,0.7,0.1,0.9,0.4
				C465,22.1,465.1,22.5,465.1,23"/>
			<path class="st3" d="M473.5,30.9l-2.3-3.8l-1.4,1.3v2.1c0,0.5-0.1,0.9-0.4,1.1c-0.3,0.3-0.6,0.4-0.9,0.4c-0.4,0-0.7-0.1-0.9-0.4
				c-0.2-0.3-0.3-0.7-0.3-1.2V19.4c0-0.6,0.1-1,0.3-1.3c0.2-0.3,0.5-0.5,1-0.5c0.4,0,0.7,0.1,0.9,0.4c0.2,0.3,0.4,0.7,0.4,1.2v6.3
				l2.9-3.1c0.4-0.4,0.6-0.6,0.8-0.8c0.2-0.1,0.4-0.2,0.7-0.2c0.3,0,0.6,0.1,0.8,0.3c0.2,0.2,0.3,0.5,0.3,0.8c0,0.4-0.4,0.9-1.1,1.5
				l-1.4,1.3l2.7,4.2c0.2,0.3,0.3,0.5,0.4,0.7c0.1,0.2,0.1,0.3,0.1,0.5c0,0.4-0.1,0.7-0.3,1c-0.2,0.2-0.5,0.4-0.9,0.4
				c-0.3,0-0.6-0.1-0.7-0.3C474,31.6,473.8,31.3,473.5,30.9"/>
			<path class="st3" d="M479.1,32c-0.4,0-0.7-0.1-1-0.4c-0.3-0.2-0.4-0.6-0.4-1.1c0-0.4,0.1-0.7,0.4-1c0.3-0.3,0.6-0.4,1-0.4
				c0.4,0,0.7,0.1,1,0.4c0.3,0.3,0.4,0.6,0.4,1c0,0.5-0.1,0.8-0.4,1.1C479.8,31.9,479.5,32,479.1,32"/>
			<path class="st3" d="M492,28.8c0,0.3-0.1,0.7-0.3,1c-0.2,0.4-0.5,0.7-0.9,1.1c-0.4,0.3-0.9,0.6-1.5,0.8c-0.6,0.2-1.3,0.3-2,0.3
				c-1.6,0-2.9-0.5-3.8-1.4c-0.9-0.9-1.3-2.2-1.3-3.8c0-1.1,0.2-2,0.6-2.8c0.4-0.8,1-1.4,1.8-1.9c0.8-0.4,1.7-0.7,2.8-0.7
				c0.7,0,1.3,0.1,1.9,0.3c0.6,0.2,1,0.5,1.4,0.8c0.4,0.3,0.7,0.6,0.9,1c0.2,0.4,0.3,0.7,0.3,1c0,0.3-0.1,0.6-0.3,0.8
				c-0.2,0.2-0.5,0.3-0.8,0.3c-0.2,0-0.4-0.1-0.5-0.2c-0.1-0.1-0.3-0.3-0.5-0.5c-0.3-0.5-0.6-0.8-1-1.1c-0.3-0.2-0.8-0.4-1.3-0.4
				c-0.8,0-1.4,0.3-1.9,0.9c-0.5,0.6-0.7,1.4-0.7,2.5c0,0.5,0.1,0.9,0.2,1.3c0.1,0.4,0.3,0.8,0.5,1c0.2,0.3,0.5,0.5,0.8,0.7
				c0.3,0.2,0.7,0.2,1.1,0.2c0.5,0,1-0.1,1.3-0.4c0.4-0.2,0.7-0.6,1-1.1c0.2-0.3,0.3-0.5,0.5-0.7c0.2-0.2,0.4-0.3,0.7-0.3
				c0.3,0,0.6,0.1,0.8,0.4C491.9,28.3,492,28.6,492,28.8"/>
			<path class="st3" d="M503.2,26.8c0,0.8-0.1,1.5-0.4,2.1c-0.2,0.7-0.6,1.2-1,1.7c-0.5,0.5-1,0.8-1.6,1.1c-0.6,0.2-1.3,0.4-2.1,0.4
				c-0.8,0-1.5-0.1-2.1-0.4c-0.6-0.2-1.2-0.6-1.6-1.1c-0.5-0.5-0.8-1-1.1-1.7c-0.2-0.6-0.3-1.4-0.3-2.1c0-0.8,0.1-1.5,0.4-2.2
				c0.2-0.7,0.6-1.2,1-1.7c0.5-0.5,1-0.8,1.6-1.1c0.6-0.2,1.3-0.4,2.1-0.4c0.8,0,1.5,0.1,2.1,0.4c0.6,0.3,1.2,0.6,1.6,1.1
				c0.5,0.5,0.8,1,1,1.7C503.1,25.3,503.2,26,503.2,26.8 M500.6,26.8c0-1.1-0.2-1.9-0.7-2.5c-0.5-0.6-1.1-0.9-1.9-0.9
				c-0.5,0-1,0.1-1.3,0.4c-0.4,0.3-0.7,0.6-0.9,1.2c-0.2,0.5-0.3,1.1-0.3,1.8c0,0.7,0.1,1.3,0.3,1.8c0.2,0.5,0.5,0.9,0.9,1.2
				c0.4,0.3,0.8,0.4,1.4,0.4c0.8,0,1.4-0.3,1.9-0.9C500.4,28.6,500.6,27.8,500.6,26.8"/>
			<path class="st3" d="M513.1,27v3.4c0,0.5-0.1,1-0.4,1.2c-0.3,0.3-0.6,0.4-1,0.4c-0.4,0-0.7-0.1-1-0.4c-0.2-0.3-0.4-0.7-0.4-1.2
				v-4.1c0-0.7,0-1.2-0.1-1.5c0-0.4-0.2-0.7-0.4-0.9c-0.2-0.2-0.5-0.4-0.9-0.4c-0.8,0-1.4,0.3-1.7,0.9c-0.3,0.6-0.4,1.4-0.4,2.5v3.5
				c0,0.5-0.1,0.9-0.4,1.2c-0.3,0.3-0.6,0.4-1,0.4c-0.4,0-0.7-0.1-1-0.4c-0.3-0.3-0.4-0.7-0.4-1.2V23c0-0.5,0.1-0.9,0.3-1.1
				c0.2-0.3,0.5-0.4,0.9-0.4c0.4,0,0.7,0.1,0.9,0.4c0.2,0.2,0.4,0.6,0.4,1v0.2c0.5-0.5,0.9-0.9,1.4-1.2c0.5-0.3,1.1-0.4,1.7-0.4
				c0.7,0,1.2,0.1,1.7,0.4c0.5,0.3,0.9,0.7,1.2,1.2c0.4-0.5,0.9-0.9,1.4-1.2c0.5-0.3,1.1-0.4,1.7-0.4c0.7,0,1.3,0.1,1.8,0.4
				c0.5,0.3,0.9,0.7,1.1,1.2c0.2,0.5,0.3,1.2,0.3,2.2v5.1c0,0.5-0.1,1-0.4,1.2c-0.2,0.3-0.6,0.4-1,0.4c-0.4,0-0.7-0.1-1-0.4
				c-0.3-0.3-0.4-0.7-0.4-1.2V26c0-0.6,0-1-0.1-1.3c0-0.3-0.2-0.6-0.4-0.8c-0.2-0.2-0.5-0.3-1-0.3c-0.3,0-0.7,0.1-1,0.3
				c-0.3,0.2-0.5,0.5-0.7,0.8C513.2,25.1,513.1,25.8,513.1,27"/>
		</g>
		<g>
			<path class="st3" d="M392.4,26.1C392.4,26.1,392.4,26.1,392.4,26.1C392.4,26.1,392.4,26.1,392.4,26.1z"/>
			<path class="st3" d="M392.5,27C392.5,27,392.5,27,392.5,27c0-0.2-0.1-0.5-0.1-0.7C392.5,26.5,392.5,26.7,392.5,27z"/>
			<path class="st3" d="M393.4,29.4C393.4,29.4,393.4,29.4,393.4,29.4C393.4,29.4,393.4,29.4,393.4,29.4z"/>
			<path class="st3" d="M393.3,29.2c0,0,0-0.1-0.1-0.1C393.3,29.1,393.3,29.2,393.3,29.2z"/>
			<path class="st3" d="M392.8,27.9c0.1,0.4,0.3,0.8,0.5,1.2C393.1,28.7,392.9,28.3,392.8,27.9C392.8,27.9,392.8,27.9,392.8,27.9z"
				/>
			<path class="st3" d="M402.4,16.2c0.5,0,0.9,0,1.3,0.1l0.1-0.8c0,0-1.2-0.4-2.7-0.2l-0.1-0.4c0.5-0.1,0.8-0.5,0.8-1
				c0-0.6-0.5-1.1-1.1-1.1c-0.6,0-1.1,0.5-1.1,1.1c0,0.5,0.4,0.9,0.8,1l0.1,0.5c-1.6,0.2-2.9,0.9-2.9,0.9l0.2,0.7
				c1-0.3,1.8-0.5,2.6-0.6C401.4,16.2,402,16.2,402.4,16.2z"/>
			<path class="st3" d="M393.4,20.1L393.4,20.1c0-0.1,0.1-0.1,0.1-0.2l-0.3-0.2l-0.5-0.4c0,0-0.8,0.7-1.4,2c0,0-0.1-0.1-0.1-0.1
				c-0.2-0.2-0.4-0.3-0.8-0.3c0,0,0,0,0,0c-0.2,0-0.3-0.1-0.4-0.1c0.1-0.1,0.1-0.3,0.1-0.4c0-0.4-0.3-0.7-0.7-0.7
				c-0.4,0-0.7,0.3-0.7,0.7c0,0.4,0.3,0.7,0.7,0.7c0.1,0,0.1,0,0.2,0c0.2,0.2,0.4,0.3,0.8,0.3c0.2,0,0.3,0,0.4,0.2
				c0.1,0.1,0.1,0.3,0.2,0.4c0,0,0,0,0,0c-0.4,1.2-0.3,2.7-0.3,2.7l1.1,0c0-0.5,0.1-1.5,0.4-2.2C392.7,21,393.3,20.1,393.4,20.1z"/>
			<path class="st3" d="M411.6,17.1c-0.4,0-0.7,0.3-0.7,0.7c0,0.1,0,0.1,0,0.2c-0.2,0.2-0.3,0.4-0.3,0.8c0,0.2,0,0.3-0.2,0.4
				c-0.1,0.1-0.2,0.1-0.3,0.1c-0.8-1.1-1.8-1.8-1.8-1.8l-0.8,0.8c0.6,0.5,1.2,1.2,1.7,2c0.4,0.6,0.8,1.3,1.1,2l1-0.5
				c0,0-0.5-1.2-1.1-2.2c0.1,0,0.2-0.1,0.3-0.2c0.2-0.2,0.3-0.4,0.3-0.8c0-0.2,0.1-0.3,0.1-0.4c0.1,0.1,0.3,0.1,0.4,0.1
				c0.4,0,0.7-0.3,0.7-0.7C412.3,17.4,412,17.1,411.6,17.1z"/>
			<path class="st3" d="M409,26.3c-1.4,0.7-3.7,1.6-6.8,2c-1.2,0.2-2.4,0.2-3.4,0.2c-1.4,0-2.6-0.1-3.6-0.2
				c-1.1-0.1-1.9-0.3-2.4-0.4c0.1,0.4,0.3,0.8,0.5,1.2c0,0,0,0,0,0c0,0,0,0.1,0.1,0.1c0,0,0,0.1,0.1,0.1c0,0,0,0,0,0
				c0.3,0.6,0.7,1.1,1.1,1.5c1.4,1.6,2.9,1.8,2.9,1.8l0,0l0,0c0,0,1.3,0.4,3.3,0.4c1.9,0,3.9-0.4,5.7-1.2c1.3-0.7,2.6-1.7,3.3-2.7
				c0.5-0.7,0.8-1.5,1.1-2.3c0.1-0.4,0.2-1.1,0.1-1.8C410.5,25.5,409.8,25.9,409,26.3z"/>
			<path class="st3" d="M393.8,20.4c0,0.1-0.7,0.9-1.1,2.3c-0.4,1-0.3,2.4-0.3,2.5v0c0,0.3,0,0.7,0.1,1c0,0,0,0,0,0c0,0,0,0.1,0,0.1
				c0,0.2,0.1,0.5,0.1,0.7c0.7,0.2,4.9,1.2,9.5,0.5c2.9-0.4,5.1-1.3,6.5-1.9c1.1-0.5,1.8-1,2.1-1.2c-0.3-1-1-2.6-1.7-3.6
				c-2-2.9-4.2-3.6-5.3-3.8c-0.4-0.1-0.8-0.1-1.2-0.1c-0.4,0-1,0-1.7,0.1c-0.7,0.1-1.6,0.3-2.5,0.6c-1.3,0.5-2.6,1.2-3.5,2l0,0
				C394.5,19.7,394.2,20,393.8,20.4z M406.1,19.7c1,0,1.7,0.8,1.7,1.7c0,1-0.8,1.7-1.7,1.7c-1,0-1.7-0.8-1.7-1.7
				C404.4,20.5,405.1,19.7,406.1,19.7z M397.9,19.7c1.6,0,2.8,1.3,2.8,2.8c0,1.6-1.3,2.8-2.8,2.8c-1.6,0-2.8-1.3-2.8-2.8
				C395,20.9,396.3,19.7,397.9,19.7z"/>
		</g>
	</g>
</g>
<g id="Objects">
	<g>
		<defs>
			<rect id="SVGID_2_" width="800" height="800"/>
		</defs>
		<clipPath id="SVGID_3_">
			<use xlink:href="#SVGID_2_"  style="overflow:visible;"/>
		</clipPath>
		<ellipse class="st4" cx="317.1" cy="737.6" rx="165.5" ry="22.5"/>
		<g class="st5">
			<path class="st6" d="M617.5,378.8c0,0,25.9,2.8,27.4,24.3"/>
			<path class="st6" d="M506.8,669.7c0,0-15.8,24.6-48.4-2.4"/>
			<path class="st7" d="M639.2,421.4c-1.2,1.1-3.1,0.9-4.1-0.3l-7.8-9.9c-1.1-1.2-0.9-3.1,0.3-4.1l0,0c1.2-1.1,3.1-0.9,4.1,0.3
				l7.8,9.9C640.6,418.5,640.4,420.4,639.2,421.4L639.2,421.4z"/>
			<path class="st7" d="M631.5,437.8c-1.2,1.1-3.1,0.9-4.1-0.3l-7.8-9.9c-1.1-1.2-0.9-3.1,0.3-4.1l0,0c1.2-1.1,3.1-0.9,4.1,0.3
				l7.8,9.9C632.8,434.9,632.7,436.8,631.5,437.8L631.5,437.8z"/>
			<path class="st7" d="M623.7,454.2c-1.2,1.1-3.1,0.9-4.1-0.3l-7.8-9.9c-1.1-1.2-0.9-3.1,0.3-4.1l0,0c1.2-1.1,3.1-0.9,4.1,0.3
				l7.8,9.9C625.1,451.3,624.9,453.2,623.7,454.2L623.7,454.2z"/>
			<path class="st7" d="M616,470.6c-1.2,1.1-3.1,0.9-4.1-0.3l-7.8-9.9c-1.1-1.2-0.9-3.1,0.3-4.1l0,0c1.2-1.1,3.1-0.9,4.1,0.3
				l7.8,9.9C617.3,467.7,617.2,469.5,616,470.6L616,470.6z"/>
			<path class="st7" d="M608.2,487c-1.2,1.1-3.1,0.9-4.1-0.3l-7.8-9.9c-1.1-1.2-0.9-3.1,0.3-4.1l0,0c1.2-1.1,3.1-0.9,4.1,0.3
				l7.8,9.9C609.6,484.1,609.4,485.9,608.2,487L608.2,487z"/>
			<path class="st7" d="M600.4,503.4c-1.2,1.1-3.1,0.9-4.1-0.3l-7.8-9.9c-1.1-1.2-0.9-3.1,0.3-4.1l0,0c1.2-1.1,3.1-0.9,4.1,0.3
				l7.8,9.9C601.8,500.5,601.7,502.3,600.4,503.4L600.4,503.4z"/>
			<path class="st7" d="M592.7,519.8c-1.2,1.1-3.1,0.9-4.1-0.3l-7.8-9.9c-1.1-1.2-0.9-3.1,0.3-4.1l0,0c1.2-1.1,3.1-0.9,4.1,0.3
				l7.8,9.9C594.1,516.9,593.9,518.7,592.7,519.8L592.7,519.8z"/>
			<path class="st7" d="M584.9,536.2c-1.2,1.1-3.1,0.9-4.1-0.3L573,526c-1.1-1.2-0.9-3.1,0.3-4.1l0,0c1.2-1.1,3.1-0.9,4.1,0.3
				l7.8,9.9C586.3,533.3,586.2,535.1,584.9,536.2L584.9,536.2z"/>
			<path class="st7" d="M577.6,551.8c-1.2,1.1-3.1,0.9-4.1-0.3l-7.8-9.9c-1.1-1.2-0.9-3.1,0.3-4.1l0,0c1.2-1.1,3.1-0.9,4.1,0.3
				l7.8,9.9C578.9,548.8,578.8,550.7,577.6,551.8L577.6,551.8z"/>
			<path class="st7" d="M569.9,568c-1.2,1.1-3.1,0.9-4.1-0.3l-7.8-9.9c-1.1-1.2-0.9-3.1,0.3-4.1l0,0c1.2-1.1,3.1-0.9,4.1,0.3
				l7.8,9.9C571.2,565.1,571.1,567,569.9,568L569.9,568z"/>
			<path class="st7" d="M562.2,584.3c-1.2,1.1-3.1,0.9-4.1-0.3l-7.8-9.9c-1.1-1.2-0.9-3.1,0.3-4.1l0,0c1.2-1.1,3.1-0.9,4.1,0.3
				l7.8,9.9C563.5,581.4,563.4,583.3,562.2,584.3L562.2,584.3z"/>
			<path class="st7" d="M554.5,600.6c-1.2,1.1-3.1,0.9-4.1-0.3l-7.8-9.9c-1.1-1.2-0.9-3.1,0.3-4.1l0,0c1.2-1.1,3.1-0.9,4.1,0.3
				l7.8,9.9C555.8,597.7,555.7,599.5,554.5,600.6L554.5,600.6z"/>
			<path class="st7" d="M546.8,616.8c-1.2,1.1-3.1,0.9-4.1-0.3l-7.8-9.9c-1.1-1.2-0.9-3.1,0.3-4.1l0,0c1.2-1.1,3.1-0.9,4.1,0.3
				l7.8,9.9C548.2,613.8,548.1,615.7,546.8,616.8L546.8,616.8z"/>
			<path class="st7" d="M539.1,633.2c-1.2,1.1-3.1,0.9-4.1-0.3l-7.8-9.9c-1.1-1.2-0.9-3.1,0.3-4.1l0,0c1.2-1.1,3.1-0.9,4.1,0.3
				l7.8,9.9C540.4,630.2,540.3,632.1,539.1,633.2L539.1,633.2z"/>
			<path class="st7" d="M531.3,649.6c-1.2,1.1-3.1,0.9-4.1-0.3l-7.8-9.9c-1.1-1.2-0.9-3.1,0.3-4.1l0,0c1.2-1.1,3.1-0.9,4.1,0.3
				l7.8,9.9C532.7,646.6,532.6,648.5,531.3,649.6L531.3,649.6z"/>
			<path class="st7" d="M523.7,665.7c-1.2,1.1-3.1,0.9-4.1-0.3l-7.8-9.9c-1.1-1.2-0.9-3.1,0.3-4.1l0,0c1.2-1.1,3.1-0.9,4.1,0.3
				l7.8,9.9C525,662.8,524.9,664.6,523.7,665.7L523.7,665.7z"/>
			<path class="st8" d="M648,402.3c0.5,1.5-0.2,3.2-1.8,3.8l-16.2,5.8c-1.5,0.5-3.2-0.2-3.8-1.8l0,0c-0.5-1.5,0.2-3.2,1.8-3.8
				l16.2-5.8C645.8,400,647.5,400.8,648,402.3L648,402.3z"/>
			<path class="st8" d="M640.3,418.6c0.5,1.5-0.2,3.2-1.8,3.8l-16.2,5.8c-1.5,0.5-3.2-0.2-3.8-1.8l0,0c-0.5-1.5,0.2-3.2,1.8-3.8
				l16.2-5.8C638.1,416.3,639.8,417.1,640.3,418.6L640.3,418.6z"/>
			<path class="st8" d="M632.6,434.9c0.5,1.5-0.2,3.2-1.8,3.8l-16.2,5.8c-1.5,0.5-3.2-0.2-3.8-1.8l0,0c-0.5-1.5,0.2-3.2,1.8-3.8
				l16.2-5.8C630.4,432.6,632.1,433.4,632.6,434.9L632.6,434.9z"/>
			<path class="st8" d="M624.9,451.2c0.5,1.5-0.2,3.2-1.8,3.8l-16.2,5.8c-1.5,0.5-3.2-0.2-3.8-1.8l0,0c-0.5-1.5,0.2-3.2,1.8-3.8
				l16.2-5.8C622.7,448.8,624.4,449.6,624.9,451.2L624.9,451.2z"/>
			<path class="st8" d="M617.2,467.4c0.5,1.5-0.2,3.2-1.8,3.8l-16.2,5.8c-1.5,0.5-3.2-0.2-3.8-1.8l0,0c-0.5-1.5,0.2-3.2,1.8-3.8
				l16.2-5.8C615,465.1,616.7,465.9,617.2,467.4L617.2,467.4z"/>
			<path class="st8" d="M609.5,483.7c0.5,1.5-0.2,3.2-1.8,3.8l-16.2,5.8c-1.5,0.5-3.2-0.2-3.8-1.8l0,0c-0.5-1.5,0.2-3.2,1.8-3.8
				l16.2-5.8C607.3,481.4,609,482.2,609.5,483.7L609.5,483.7z"/>
			<path class="st8" d="M601.8,500c0.5,1.5-0.2,3.2-1.8,3.8l-16.2,5.8c-1.5,0.5-3.2-0.2-3.8-1.8l0,0c-0.5-1.5,0.2-3.2,1.8-3.8
				l16.2-5.8C599.6,497.7,601.3,498.5,601.8,500L601.8,500z"/>
			<path class="st8" d="M594.1,516.3c0.5,1.5-0.2,3.2-1.8,3.8l-16.2,5.8c-1.5,0.5-3.2-0.2-3.8-1.8l0,0c-0.5-1.5,0.2-3.2,1.8-3.8
				l16.2-5.8C591.9,514,593.6,514.8,594.1,516.3L594.1,516.3z"/>
			<path class="st8" d="M586.4,532.6c0.5,1.5-0.2,3.2-1.8,3.8l-16.2,5.8c-1.5,0.5-3.2-0.2-3.8-1.8l0,0c-0.5-1.5,0.2-3.2,1.8-3.8
				l16.2-5.8C584.2,530.2,585.9,531,586.4,532.6L586.4,532.6z"/>
			<path class="st8" d="M578.7,548.8c0.5,1.5-0.2,3.2-1.8,3.8l-16.2,5.8c-1.5,0.5-3.2-0.2-3.8-1.8l0,0c-0.5-1.5,0.2-3.2,1.8-3.8
				l16.2-5.8C576.5,546.5,578.2,547.3,578.7,548.8L578.7,548.8z"/>
			<path class="st8" d="M571,565.1c0.5,1.5-0.2,3.2-1.8,3.8l-16.2,5.8c-1.5,0.5-3.2-0.2-3.8-1.8l0,0c-0.5-1.5,0.2-3.2,1.8-3.8
				l16.2-5.8C568.8,562.8,570.5,563.6,571,565.1L571,565.1z"/>
			<path class="st8" d="M563.3,581.4c0.5,1.5-0.2,3.2-1.8,3.8l-16.2,5.8c-1.5,0.5-3.2-0.2-3.8-1.8l0,0c-0.5-1.5,0.2-3.2,1.8-3.8
				l16.2-5.8C561.1,579.1,562.8,579.9,563.3,581.4L563.3,581.4z"/>
			<path class="st8" d="M555.6,597.7c0.5,1.5-0.2,3.2-1.8,3.8l-16.2,5.8c-1.5,0.5-3.2-0.2-3.8-1.8l0,0c-0.5-1.5,0.2-3.2,1.8-3.8
				l16.2-5.8C553.4,595.3,555.1,596.1,555.6,597.7L555.6,597.7z"/>
			<path class="st8" d="M547.9,613.9c0.5,1.5-0.2,3.2-1.8,3.8l-16.2,5.8c-1.5,0.5-3.2-0.2-3.8-1.8l0,0c-0.5-1.5,0.2-3.2,1.8-3.8
				l16.2-5.8C545.7,611.6,547.4,612.4,547.9,613.9L547.9,613.9z"/>
			<path class="st8" d="M540.2,630.2c0.5,1.5-0.2,3.2-1.8,3.8l-16.2,5.8c-1.5,0.5-3.2-0.2-3.8-1.8l0,0c-0.5-1.5,0.2-3.2,1.8-3.8
				l16.2-5.8C538,627.9,539.7,628.7,540.2,630.2L540.2,630.2z"/>
			<path class="st8" d="M532.5,646.5c0.5,1.5-0.2,3.2-1.8,3.8l-16.2,5.8c-1.5,0.5-3.2-0.2-3.8-1.8l0,0c-0.5-1.5,0.2-3.2,1.8-3.8
				l16.2-5.8C530.3,644.2,532,645,532.5,646.5L532.5,646.5z"/>
			<path class="st8" d="M524.8,662.8c0.5,1.5-0.2,3.2-1.8,3.8l-16.2,5.8c-1.5,0.5-3.2-0.2-3.8-1.8l0,0c-0.5-1.5,0.2-3.2,1.8-3.8
				l16.2-5.8C522.6,660.5,524.3,661.3,524.8,662.8L524.8,662.8z"/>
		</g>
		<g class="st5">
			<path class="st9" d="M592,92.6c0,0-9.8,11.2-28.7,9.8c-18.9-1.4-56.7,7-70.7,25.2L612,246.9c0,0,36.1-40.9,41.2-83.4l4.9-4.9
				L592,92.6z"/>
			<g>
				<path class="st10" d="M443.2,139.1l-29.4,29.4L361.3,116l10-10c36-36,94.3-36,130.2,0l130.2,130.2c36,36,36,94.3,0,130.2l-10,10
					l-52.5-52.5l29.4-29.4c2.3-2.3,2.3-6.1,0-8.4l-147-147C449.3,136.8,445.6,136.8,443.2,139.1z"/>
				<path class="st11" d="M395.1,183.7c2.4,2.4,6.3,2.4,8.6,0l18.9-18.9c2.4-2.4,2.4-6.3,0-8.6L373,106.5c-2.4-2.4-6.3-2.4-8.6,0
					l-18.9,18.9c-2.4,2.4-2.4,6.3,0,8.6L395.1,183.7z"/>
				<path class="st11" d="M602.5,396.7c2.5,2.5,6.7,2.5,9.2,0l20.1-20.1c2.5-2.5,2.5-6.6,0-9.2L579,314.5c-2.5-2.5-6.7-2.5-9.2,0
					l-20.1,20.1c-2.5,2.5-2.5,6.7,0,9.2L602.5,396.7z"/>
			</g>
			<path class="st12" d="M496.1,253.1c8,6.5,19.8,5.2,26.3-2.8l23-28.5c6.5-8,5.2-19.8-2.8-26.3l0,0c-8-6.5-19.8-5.2-26.3,2.8
				l-23,28.5C486.8,234.8,488.1,246.6,496.1,253.1L496.1,253.1z"/>
			<path class="st9" d="M471.2,169.9c6.2,5.9,16,5.6,21.9-0.6l38.7-33.2c5.9-6.2-1-8.7-7.2-14.6l-2.3-2.5c-6.2-5.9-7-10.3-12.9-4.2
				L470.6,148C464.7,154.2,465,164,471.2,169.9L471.2,169.9z"/>
			<path class="st12" d="M472.1,223.2c8,6.5,19.8,5.2,26.3-2.8l23-28.5c6.5-8,5.2-19.8-2.8-26.3l0,0c-8-6.5-19.8-5.2-26.3,2.8
				l-23,28.5C462.8,204.9,464.1,216.7,472.1,223.2L472.1,223.2z"/>
			<path class="st12" d="M527,272.2c7.1,5.7,17.6,4.6,23.3-2.5l20.4-25.3c5.7-7.1,4.6-17.6-2.5-23.3l0,0c-7.1-5.7-17.6-4.6-23.3,2.5
				l-20.4,25.3C518.8,256,519.9,266.4,527,272.2L527,272.2z"/>
			<path class="st12" d="M558.7,285.2c6.3,5.1,15.5,4.1,20.5-2.2l18-22.3c5.1-6.3,4.1-15.5-2.2-20.5l0,0c-6.3-5.1-15.5-4.1-20.5,2.2
				l-18,22.3C551.5,270.9,552.4,280.1,558.7,285.2L558.7,285.2z"/>
			
				<rect x="623.1" y="61.9" transform="matrix(0.7072 -0.707 0.707 0.7072 99.2587 481.0156)" class="st13" width="14.5" height="117.6"/>
			
				<rect x="578.9" y="-91.4" transform="matrix(0.7071 -0.7071 0.7071 0.7071 240.9449 539.7461)" class="st10" width="386.2" height="140.9"/>
			<path class="st13" d="M679.3,143.7c3.4,3.4,9,3.4,12.5,0c3.4-3.4,3.4-9,0-12.5c-3.4-3.4-9-3.4-12.5,0
				C675.8,134.7,675.8,140.2,679.3,143.7z"/>
		</g>
		<g class="st5">
			<g>
				<path class="st11" d="M482.5,703.6c0.5,4.9-3.1,9.3-8,9.8l-323.7,32.9c-4.9,0.5-9.3-3.1-9.8-8l-5.3-52.6c-0.5-4.9,3.1-9.3,8-9.8
					L467.4,643c4.9-0.5,9.3,3.1,9.8,8L482.5,703.6z"/>
				
					<rect x="142.1" y="635.2" transform="matrix(0.9949 -0.101 0.101 0.9949 -63.8505 34.0629)" class="st10" width="324.4" height="24.3"/>
				<path class="st11" d="M377.5,464.8l-2.3-23.1l-31.5,3.2L346,468l-59.3,6l-59.3,6l-2.3-23.1l-31.5,3.2l2.3,23.1
					c0,0-5.8,120.1-54.2,168.4l161.4-16.4l161.4-16.4C407.3,581.3,377.5,464.8,377.5,464.8z"/>
				<g>
					<path class="st14" d="M351.1,520.5c-20.8-28.9-61.1-35.5-90-14.7c-28.9,20.8-35.5,61.1-14.7,90c20.8,28.9,61.1,35.5,90,14.7
						C365.3,589.7,371.9,549.4,351.1,520.5z M304.9,501.1c4.9-0.5,9.3,3.1,9.8,8c0.5,4.9-3.1,9.3-8,9.8c-4.9,0.5-9.3-3.1-9.8-8
						C296.5,505.9,300,501.6,304.9,501.1z M275.6,505.6c4-2.9,9.6-2,12.4,2c2.9,4,2,9.6-2,12.4c-4,2.9-9.6,2-12.4-2
						C270.6,514,271.6,508.5,275.6,505.6z M252.4,524.2c2-4.5,7.3-6.5,11.8-4.5c4.5,2,6.5,7.3,4.5,11.8c-2,4.5-7.3,6.5-11.8,4.5
						C252.4,534,250.4,528.7,252.4,524.2z M241.6,551.9c-0.5-4.9,3.1-9.3,8-9.8c4.9-0.5,9.3,3.1,9.8,8c0.5,4.9-3.1,9.3-8,9.8
						C246.5,560.4,242.1,556.8,241.6,551.9z M246.2,581.3c-2.9-4-2-9.6,2-12.4c4-2.9,9.6-2,12.4,2c2.9,4,2,9.6-2,12.4
						C254.6,586.2,249.1,585.3,246.2,581.3z M276.6,600c-2,4.5-7.3,6.5-11.8,4.5c-4.5-2-6.5-7.3-4.5-11.8c2-4.5,7.3-6.5,11.8-4.5
						C276.6,590.2,278.6,595.5,276.6,600z M292.5,615.2c-4.9,0.5-9.3-3.1-9.8-8c-0.5-4.9,3.1-9.3,8-9.8c4.9-0.5,9.3,3.1,9.8,8
						C301,610.4,297.4,614.7,292.5,615.2z M321.9,610.7c-4,2.9-9.6,2-12.4-2c-2.9-4-2-9.6,2-12.4c4-2.9,9.6-2,12.4,2
						C326.8,602.2,325.9,607.8,321.9,610.7z M318.5,585.7c-15.2,10.9-36.4,7.5-47.4-7.8c-10.9-15.2-7.5-36.4,7.8-47.4
						c15.2-10.9,36.4-7.5,47.4,7.8C337.2,553.6,333.8,574.8,318.5,585.7z M325.3,528.1c-4.5-2-6.5-7.3-4.5-11.8
						c2-4.5,7.3-6.5,11.8-4.5c4.5,2,6.5,7.3,4.5,11.8C335.1,528.1,329.8,530.1,325.3,528.1z M349.2,547.4c-4,2.9-9.6,2-12.4-2
						c-2.9-4-2-9.6,2-12.4c4-2.9,9.6-2,12.4,2C354.1,539,353.2,544.6,349.2,547.4z"/>
					<path class="st13" d="M350.8,517.6c-20.8-28.9-61.1-35.5-90-14.7c-28.9,20.8-35.5,61.1-14.7,90c20.8,28.9,61.1,35.5,90,14.7
						C365,586.8,371.6,546.5,350.8,517.6z M304.6,498.1c4.9-0.5,9.3,3.1,9.8,8c0.5,4.9-3.1,9.3-8,9.8c-4.9,0.5-9.3-3.1-9.8-8
						C296.2,503,299.7,498.6,304.6,498.1z M275.3,502.6c4-2.9,9.6-2,12.4,2c2.9,4,2,9.6-2,12.4c-4,2.9-9.6,2-12.4-2
						C270.3,511.1,271.3,505.5,275.3,502.6z M252.1,521.3c2-4.5,7.3-6.5,11.8-4.5c4.5,2,6.5,7.3,4.5,11.8c-2,4.5-7.3,6.5-11.8,4.5
						C252.1,531,250.1,525.8,252.1,521.3z M241.3,549c-0.5-4.9,3.1-9.3,8-9.8c4.9-0.5,9.3,3.1,9.8,8c0.5,4.9-3.1,9.3-8,9.8
						C246.2,557.5,241.8,553.9,241.3,549z M245.9,578.4c-2.9-4-2-9.6,2-12.4c4-2.9,9.6-2,12.4,2c2.9,4,2,9.6-2,12.4
						C254.3,583.3,248.8,582.3,245.9,578.4z M276.3,597.1c-2,4.5-7.3,6.5-11.8,4.5c-4.5-2-6.5-7.3-4.5-11.8c2-4.5,7.3-6.5,11.8-4.5
						C276.3,587.3,278.3,592.6,276.3,597.1z M292.2,612.3c-4.9,0.5-9.3-3.1-9.8-8c-0.5-4.9,3.1-9.3,8-9.8c4.9-0.5,9.3,3.1,9.8,8
						C300.7,607.4,297.1,611.8,292.2,612.3z M321.6,607.7c-4,2.9-9.6,2-12.4-2c-2.9-4-2-9.6,2-12.4c4-2.9,9.6-2,12.4,2
						C326.5,599.3,325.6,604.9,321.6,607.7z M318.2,582.8c-15.2,10.9-36.4,7.5-47.4-7.8c-10.9-15.2-7.5-36.4,7.8-47.4
						c15.2-10.9,36.4-7.5,47.4,7.8C336.9,550.6,333.5,571.8,318.2,582.8z M325,525.1c-4.5-2-6.5-7.3-4.5-11.8
						c2-4.5,7.3-6.5,11.8-4.5c4.5,2,6.5,7.3,4.5,11.8C334.8,525.1,329.5,527.1,325,525.1z M348.9,544.5c-4,2.9-9.6,2-12.4-2
						c-2.9-4-2-9.6,2-12.4c4-2.9,9.6-2,12.4,2C353.8,536,352.9,541.6,348.9,544.5z"/>
					<g>
						<path class="st10" d="M320.8,575.2l30.2,17.6c2.6,1.5,3.5,4.9,2,7.5c-1.5,2.6-4.9,3.5-7.5,2c-0.5-0.3-1-0.7-1.3-1.1
							L320.8,575.2z"/>
					</g>
				</g>
			</g>
			<g>
				<g>
					<path class="st15" d="M126.8,482c0,0-0.1-0.6-0.1-1.6c0-0.5-0.1-1.2-0.2-1.9c0-0.4-0.1-0.8-0.1-1.2c0-0.4,0-0.9,0-1.4
						c0-1,0-2.1,0-3.3c0-1.2,0.1-2.5,0.2-3.8c0.1-1.4,0.3-2.8,0.4-4.4c0.1-1.5,0.5-3.1,0.7-4.8c0.3-1.7,0.7-3.4,1.1-5.2
						c0.3-0.9,0.5-1.8,0.8-2.7c0.3-0.9,0.5-1.8,0.9-2.8c0.3-0.9,0.6-1.9,1-2.8c0.4-0.9,0.8-1.9,1.1-2.8c0.7-1.9,1.7-3.8,2.6-5.7
						c2-3.8,4.3-7.6,6.9-11.3c2.7-3.6,5.6-7.1,8.8-10.4c3.3-3.2,6.8-6.2,10.4-8.8c3.7-2.6,7.5-4.9,11.3-6.9
						c3.8-1.9,7.6-3.5,11.4-4.7c0.9-0.3,1.8-0.6,2.8-0.9c0.9-0.3,1.8-0.5,2.7-0.8c1.8-0.4,3.5-0.8,5.2-1.1c1.7-0.3,3.3-0.6,4.8-0.7
						c1.5-0.1,3-0.3,4.4-0.4c1.4-0.1,2.6-0.2,3.8-0.2c1.2,0,2.3,0,3.2,0c0.5,0,0.9,0,1.4,0c0.4,0,0.8,0.1,1.2,0.1
						c0.8,0.1,1.4,0.1,1.9,0.2c1,0.1,1.6,0.1,1.6,0.1s-0.6,0.1-1.6,0.2c-1,0.2-2.5,0.3-4.4,0.6c-0.9,0.2-2,0.3-3.1,0.5
						c-1.1,0.3-2.4,0.5-3.7,0.8c-2.6,0.6-5.5,1.4-8.6,2.3c-1.6,0.5-3.1,1.1-4.8,1.6c-1.6,0.7-3.3,1.2-5,2c-0.8,0.4-1.7,0.8-2.6,1.1
						c-0.9,0.4-1.7,0.8-2.6,1.3c-1.7,0.8-3.5,1.8-5.2,2.8c-3.5,2.1-6.9,4.3-10.3,6.9c-3.3,2.6-6.5,5.4-9.6,8.4c-3,3-5.8,6.3-8.4,9.6
						c-2.5,3.4-4.8,6.8-6.9,10.3c-2,3.5-3.8,6.9-5.2,10.4c-0.8,1.7-1.4,3.4-2,5c-0.6,1.6-1.1,3.2-1.6,4.8c-1,3.1-1.7,6-2.3,8.6
						c-0.3,1.3-0.5,2.5-0.8,3.7c-0.2,1.1-0.4,2.2-0.5,3.1c-0.3,1.9-0.5,3.4-0.6,4.5C126.9,481.4,126.8,482,126.8,482z"/>
				</g>
				<g>
					<path class="st15" d="M86.3,482c0,0-0.1-0.8-0.2-2.3c-0.1-0.8-0.1-1.7-0.2-2.8c0-0.5-0.1-1.1-0.1-1.8c0-0.6,0-1.3,0-2
						c0-1.4,0-3-0.1-4.7c0-1.7,0.2-3.6,0.3-5.5c0.1-2,0.4-4.1,0.6-6.3c0.1-1.1,0.3-2.2,0.5-3.4c0.2-1.2,0.4-2.3,0.6-3.6
						c0.2-1.2,0.5-2.4,0.8-3.7c0.3-1.2,0.6-2.5,0.9-3.8c0.4-1.3,0.7-2.6,1.1-3.9c0.4-1.3,0.8-2.7,1.2-4c0.5-1.3,0.9-2.7,1.4-4.1
						c0.5-1.4,1.1-2.7,1.6-4.1c0.3-0.7,0.6-1.4,0.9-2.1c0.3-0.7,0.6-1.4,1-2.1c0.7-1.4,1.3-2.8,2-4.2c1.5-2.7,2.9-5.5,4.6-8.2
						c0.9-1.4,1.6-2.8,2.6-4.1c0.9-1.3,1.8-2.7,2.8-4c3.8-5.3,8.2-10.3,12.8-15.1c4.7-4.6,9.8-9,15.1-12.8c1.3-0.9,2.7-1.9,4-2.8
						c1.3-0.9,2.7-1.7,4.1-2.6c2.7-1.7,5.5-3.2,8.2-4.6c1.4-0.7,2.8-1.3,4.2-2c0.7-0.3,1.4-0.7,2.1-1c0.7-0.3,1.4-0.6,2.1-0.9
						c1.4-0.6,2.7-1.1,4.1-1.6c1.4-0.5,2.7-1,4.1-1.4c1.3-0.5,2.7-0.9,4-1.2c1.3-0.4,2.6-0.7,3.9-1.1c1.3-0.3,2.6-0.6,3.8-0.9
						c1.3-0.3,2.5-0.6,3.7-0.8c1.2-0.2,2.4-0.4,3.6-0.6c1.2-0.2,2.3-0.4,3.4-0.5c2.2-0.2,4.3-0.5,6.3-0.6c2-0.1,3.8-0.2,5.5-0.3
						c1.7,0,3.3,0,4.7,0.1c0.7,0,1.4,0,2,0c0.6,0,1.2,0.1,1.8,0.1c1.1,0.1,2,0.2,2.8,0.2c1.5,0.1,2.3,0.2,2.3,0.2s-0.8,0.1-2.3,0.3
						c-0.7,0.1-1.7,0.2-2.7,0.4c-1.1,0.1-2.3,0.3-3.7,0.6c-1.4,0.2-2.9,0.5-4.6,0.8c-1.6,0.4-3.4,0.7-5.3,1.1c-3.8,0.9-8,2-12.5,3.4
						c-2.2,0.7-4.6,1.5-6.9,2.4c-1.2,0.5-2.4,0.9-3.6,1.4c-1.2,0.5-2.4,1-3.7,1.5c-1.2,0.5-2.5,1.1-3.7,1.7
						c-1.2,0.6-2.5,1.2-3.7,1.8c-2.5,1.2-5,2.7-7.6,4.1c-5,3-10,6.3-14.9,10c-4.8,3.8-9.5,7.8-13.9,12.2c-4.4,4.4-8.4,9.1-12.2,13.9
						c-3.7,4.9-7,9.9-10,14.9c-1.4,2.6-2.9,5-4.1,7.6c-0.6,1.3-1.3,2.5-1.8,3.7c-0.6,1.3-1.1,2.5-1.7,3.7c-0.6,1.2-1.1,2.4-1.5,3.7
						c-0.5,1.2-1,2.4-1.4,3.6c-0.8,2.4-1.7,4.7-2.4,6.9c-1.4,4.5-2.5,8.7-3.4,12.5c-0.4,1.9-0.7,3.7-1.1,5.3
						c-0.3,1.7-0.5,3.2-0.8,4.5c-0.2,1.4-0.4,2.6-0.6,3.7c-0.1,1.1-0.3,2-0.4,2.8C86.4,481.2,86.3,482,86.3,482z"/>
				</g>
			</g>
			<g>
				<g>
					<path class="st15" d="M558.8,681c0,0,0,0.6,0.1,1.6c0,0.5,0.1,1.2,0.2,1.9c0,0.4,0.1,0.8,0.1,1.2c0,0.4,0,0.9,0,1.4
						c0,1,0,2.1,0,3.3c0,1.2-0.1,2.5-0.2,3.8c-0.1,1.4-0.3,2.8-0.4,4.4c-0.1,1.5-0.5,3.1-0.7,4.8c-0.3,1.7-0.7,3.4-1.1,5.2
						c-0.3,0.9-0.5,1.8-0.8,2.7c-0.3,0.9-0.5,1.8-0.9,2.8c-0.3,0.9-0.6,1.9-1,2.8c-0.4,0.9-0.8,1.9-1.1,2.8
						c-0.7,1.9-1.7,3.8-2.6,5.7c-2,3.8-4.3,7.6-6.9,11.3c-2.7,3.6-5.6,7.1-8.8,10.4c-3.3,3.2-6.8,6.2-10.4,8.8
						c-3.7,2.6-7.5,4.9-11.3,6.9c-3.8,1.9-7.6,3.5-11.4,4.7c-0.9,0.3-1.8,0.6-2.8,0.9c-0.9,0.3-1.8,0.5-2.7,0.8
						c-1.8,0.4-3.5,0.8-5.2,1.1c-1.7,0.3-3.3,0.6-4.8,0.7c-1.5,0.1-3,0.3-4.4,0.4c-1.4,0.1-2.6,0.2-3.8,0.2c-1.2,0-2.3,0-3.2,0
						c-0.5,0-0.9,0-1.4,0c-0.4,0-0.8-0.1-1.2-0.1c-0.8-0.1-1.4-0.1-1.9-0.2c-1-0.1-1.6-0.1-1.6-0.1s0.6-0.1,1.6-0.2
						c1-0.2,2.5-0.3,4.4-0.6c0.9-0.2,2-0.3,3.1-0.5c1.1-0.3,2.4-0.5,3.7-0.8c2.6-0.6,5.5-1.4,8.6-2.3c1.6-0.5,3.1-1.1,4.8-1.6
						c1.6-0.7,3.3-1.2,5-2c0.8-0.4,1.7-0.8,2.6-1.1c0.9-0.4,1.7-0.8,2.6-1.3c1.7-0.8,3.5-1.8,5.2-2.8c3.5-2.1,6.9-4.3,10.3-6.9
						c3.3-2.6,6.5-5.4,9.6-8.4c3-3,5.8-6.3,8.4-9.6c2.5-3.4,4.8-6.8,6.9-10.3c2-3.5,3.8-6.9,5.2-10.4c0.8-1.7,1.4-3.4,2-5
						c0.6-1.6,1.1-3.2,1.6-4.8c1-3.1,1.7-6,2.3-8.6c0.3-1.3,0.5-2.5,0.8-3.7c0.2-1.1,0.4-2.2,0.5-3.1c0.3-1.9,0.5-3.4,0.6-4.5
						C558.7,681.5,558.8,681,558.8,681z"/>
				</g>
				<g>
					<path class="st15" d="M599.3,681c0,0,0.1,0.8,0.2,2.3c0.1,0.8,0.1,1.7,0.2,2.8c0,0.5,0.1,1.1,0.1,1.8c0,0.6,0,1.3,0,2
						c0,1.4,0,3,0.1,4.7c0,1.7-0.2,3.6-0.3,5.5c-0.1,2-0.4,4.1-0.6,6.3c-0.1,1.1-0.3,2.2-0.5,3.4c-0.2,1.2-0.4,2.3-0.6,3.6
						c-0.2,1.2-0.5,2.4-0.8,3.7c-0.3,1.2-0.6,2.5-0.9,3.8c-0.4,1.3-0.7,2.6-1.1,3.9c-0.4,1.3-0.8,2.7-1.2,4
						c-0.5,1.3-0.9,2.7-1.4,4.1c-0.5,1.4-1.1,2.7-1.6,4.1c-0.3,0.7-0.6,1.4-0.8,2.1c-0.3,0.7-0.6,1.4-1,2.1c-0.7,1.4-1.3,2.8-2,4.2
						c-1.5,2.7-2.9,5.5-4.6,8.2c-0.9,1.4-1.6,2.8-2.6,4.1c-0.9,1.3-1.8,2.7-2.8,4c-3.8,5.3-8.2,10.3-12.8,15.1
						c-4.7,4.6-9.8,9-15.1,12.8c-1.3,0.9-2.7,1.9-4,2.8c-1.3,0.9-2.7,1.7-4.1,2.6c-2.7,1.7-5.5,3.2-8.2,4.6c-1.4,0.7-2.8,1.3-4.2,2
						c-0.7,0.3-1.4,0.7-2.1,1c-0.7,0.3-1.4,0.6-2.1,0.8c-1.4,0.6-2.7,1.1-4.1,1.6c-1.4,0.5-2.7,1-4.1,1.4c-1.3,0.5-2.7,0.9-4,1.2
						c-1.3,0.4-2.6,0.7-3.9,1.1c-1.3,0.3-2.6,0.6-3.8,0.9c-1.3,0.3-2.5,0.6-3.7,0.8c-1.2,0.2-2.4,0.4-3.6,0.6
						c-1.2,0.2-2.3,0.4-3.4,0.5c-2.2,0.2-4.3,0.5-6.3,0.6c-2,0.1-3.8,0.2-5.5,0.3c-1.7,0-3.3,0-4.7-0.1c-0.7,0-1.4,0-2,0
						c-0.6,0-1.2-0.1-1.8-0.1c-1.1-0.1-2-0.2-2.8-0.2c-1.5-0.1-2.3-0.2-2.3-0.2s0.8-0.1,2.3-0.3c0.7-0.1,1.7-0.2,2.7-0.4
						c1.1-0.1,2.3-0.3,3.7-0.6c1.4-0.2,2.9-0.5,4.6-0.8c1.6-0.4,3.4-0.7,5.3-1.1c3.8-0.9,8-2,12.5-3.4c2.3-0.7,4.6-1.5,6.9-2.4
						c1.2-0.5,2.4-0.9,3.6-1.4c1.2-0.5,2.4-1,3.7-1.5c1.2-0.5,2.5-1.1,3.7-1.7c1.2-0.6,2.5-1.2,3.7-1.8c2.5-1.2,5-2.7,7.6-4.1
						c5-3,10-6.3,14.9-10c4.8-3.8,9.5-7.8,13.9-12.2c4.4-4.4,8.4-9.1,12.2-13.9c3.7-4.9,7-9.9,10-14.9c1.4-2.6,2.9-5,4.1-7.6
						c0.6-1.3,1.3-2.5,1.8-3.7c0.6-1.3,1.1-2.5,1.7-3.7c0.6-1.2,1.1-2.4,1.5-3.7c0.5-1.2,1-2.4,1.4-3.6c0.8-2.4,1.7-4.7,2.4-6.9
						c1.4-4.5,2.5-8.7,3.4-12.5c0.4-1.9,0.7-3.7,1.1-5.3c0.3-1.7,0.5-3.2,0.8-4.5c0.2-1.4,0.4-2.6,0.6-3.7c0.1-1.1,0.3-2,0.4-2.8
						C599.2,681.8,599.3,681,599.3,681z"/>
				</g>
			</g>
		</g>
		<g class="st5">
			<path class="st16" d="M332.4,165.1c-10.6,6.7-21.8,5.4-29.1,3.3v-36.9c0-2.4-1.9-4.3-4.3-4.3h-86.6c-2.4,0-4.3,1.9-4.3,4.3v60
				c0,2.4,1.9,4.3,4.3,4.3H299c2.4,0,4.3-1.9,4.3-4.3v-3.5C327.7,184.3,332.4,165.1,332.4,165.1z"/>
			<g>
				<circle class="st15" cx="230.3" cy="161.4" r="5.1"/>
				<circle class="st15" cx="254.3" cy="161.4" r="5.1"/>
				<circle class="st15" cx="278.4" cy="161.4" r="5.1"/>
			</g>
		</g>
	</g>
	<g>
		<path d="M236.6,320.8c0,3.8-0.3,6.6-1,8.3c-0.3,0.7-0.8,1.1-1.5,1.1c-0.9,0-1.4-0.5-1.4-1.4c0,0,0.1-0.4,0.2-1.2
			c0.2-0.9,0.3-1.9,0.4-2.9c0.1-1.5,0.2-3,0.2-4.7c0-1.1,0-2.2-0.1-3.2c-0.1-1-0.1-1.5-0.1-1.4c0-1.2,0.5-1.8,1.5-1.8
			c0.8,0,1.3,0.6,1.5,1.7C236.5,316.2,236.6,318,236.6,320.8z M236.4,310.7c0,0.5-0.2,0.9-0.6,1.2s-0.8,0.5-1.4,0.5
			c-0.5,0-0.8-0.2-1.2-0.5s-0.5-0.7-0.5-1.1c0-0.5,0.2-0.9,0.5-1.2c0.4-0.3,0.8-0.5,1.4-0.5c0.5,0,0.9,0.1,1.2,0.4
			C236.3,310,236.4,310.3,236.4,310.7z"/>
		<path d="M244,320.8c0,3.8-0.3,6.6-1,8.3c-0.3,0.7-0.8,1.1-1.5,1.1c-0.9,0-1.4-0.5-1.4-1.4c0,0,0.1-0.4,0.2-1.2
			c0.2-0.9,0.3-1.9,0.4-2.9c0.1-1.5,0.2-3,0.2-4.7c0-1.1,0-2.2-0.1-3.2c-0.1-1-0.1-1.5-0.1-1.4c0-1.2,0.5-1.8,1.5-1.8
			c0.8,0,1.3,0.6,1.5,1.7C243.9,316.2,244,318,244,320.8z M243.8,310.7c0,0.5-0.2,0.9-0.6,1.2s-0.8,0.5-1.4,0.5
			c-0.5,0-0.8-0.2-1.2-0.5s-0.5-0.7-0.5-1.1c0-0.5,0.2-0.9,0.5-1.2c0.4-0.3,0.8-0.5,1.4-0.5c0.5,0,0.9,0.1,1.2,0.4
			C243.6,310,243.8,310.3,243.8,310.7z"/>
		<path d="M269.8,327.5c0,0.9-0.7,1.9-2,3c-2.2,1.8-5,2.7-8.4,2.7c-3.7,0-6.5-1.1-8.6-3.3c-2-2.2-3-5.4-3-9.4c0-3.9,1-7.1,3.1-9.5
			c2.2-2.6,5.2-3.9,8.8-3.9c3.1,0,5.7,0.8,7.7,2.4c0.7,0.6,1.1,1.2,1.1,1.7c0,0.4-0.1,0.7-0.4,1s-0.6,0.4-1,0.4
			c-0.3,0-0.6-0.2-1.1-0.5c-2.1-1.5-4.2-2.2-6.3-2.2c-2.7,0-4.8,0.9-6.4,2.8c-1.6,1.9-2.4,4.5-2.4,7.7c0,6.6,2.9,9.8,8.6,9.8
			c3.3,0,5.6-0.8,7-2.4c0.3-0.4,0.6-0.8,1-1.3c0.3-0.4,0.7-0.5,1.1-0.5c0.4,0,0.8,0.1,1,0.4C269.7,326.7,269.8,327.1,269.8,327.5z"
			/>
		<path d="M296.2,320.5c0,4.1-1.1,7.2-3.3,9.5c-2.2,2.3-5.2,3.4-9.1,3.4c-3.4,0-6.2-1.2-8.4-3.5c-2.1-2.3-3.2-5.4-3.2-9.2
			c0-4.1,0.9-7.4,2.8-9.9c2-2.7,5-4.1,8.8-4.1c3.9,0,6.9,1.2,9.1,3.6S296.2,316.1,296.2,320.5z M293.2,320.6c0-3.5-0.8-6.3-2.4-8.1
			c-1.6-1.9-3.9-2.8-6.8-2.8c-2.8,0-4.9,0.9-6.4,2.8c-1.5,1.8-2.2,4.5-2.2,8c0,3.1,0.8,5.6,2.4,7.4c1.6,1.8,3.7,2.8,6.3,2.8
			c2.8,0,5-0.9,6.6-2.6C292.4,326.1,293.2,323.7,293.2,320.6z"/>
		<path d="M321.5,308.1c0,0.4-0.1,1.4-0.4,3c-0.3,1.9-0.6,3.7-0.7,5.1c-0.4,4-0.6,7.3-0.6,9.9c0,0.7,0,1.6,0.1,2.7
			c0.1,1.1,0.1,1.8,0.1,2.1c0,1.3-0.5,1.9-1.6,1.9c-0.7,0-1.4-0.3-2.1-1c-0.6-0.6-1.5-1.6-2.5-3c-3.6-4.9-6.8-10.4-9.6-16.6
			c-1,3.6-1.6,8.6-1.8,14.9c-0.1,2.7-0.1,4.2-0.2,4.4c-0.1,0.9-0.6,1.4-1.4,1.4s-1.2-0.5-1.5-1.5c-0.1-0.4-0.1-1.2-0.1-2.4
			c0-5.2,0.6-11,1.9-17.4c0.4-1.8,0.7-3,1.1-3.7c0.4-0.8,1-1.3,1.7-1.3c0.5,0,0.8,0.3,1.1,0.8c0,0,0.4,0.8,1,2.3
			c3.3,7.4,6.8,13.4,10.7,18.1v-1.1c0-6,0.5-11.6,1.4-16.8c0.2-1.2,0.4-2.1,0.7-2.6c0.3-0.6,0.7-0.9,1.2-0.9
			C321.1,306.4,321.5,306.9,321.5,308.1z"/>
		<path d="M346,311c0,0.4-0.1,0.7-0.4,1s-0.6,0.5-0.9,0.5c-0.2,0-0.5-0.1-0.9-0.2c-0.5-0.2-0.7-0.3-0.8-0.4
			c-1.3-0.4-3.7-0.7-7.3-0.9c0.1,4.4,0.2,7.7,0.2,9.8c0,4.1-0.1,7.5-0.3,10.4c-0.1,0.9-0.2,1.6-0.4,1.9c-0.2,0.4-0.6,0.6-1.2,0.6
			c-0.9,0-1.4-0.6-1.4-1.9c0,0,0.1-1.3,0.2-3.9c0.1-2.5,0.2-5,0.2-7.5c0-1.4,0-4.5-0.1-9.5c-3.5,0-6,0.5-7.5,1.3
			c-0.2,1.9-0.8,2.9-1.8,2.9c-0.8,0-1.2-0.6-1.2-1.8c0-1.9,0.6-3.2,1.8-3.8c2.1-1,5.2-1.5,9.6-1.5C341.9,308,346,309,346,311z"/>
		<path d="M370.7,331.5c0,0.9-0.5,1.4-1.4,1.4c-0.6,0-1.3-0.6-2.1-1.8c-0.6-0.9-1.5-2.6-2.7-5.2c-3.7-0.1-7.8-0.9-12.5-2.6
			c-3.7,3.9-6.2,5.8-7.5,5.8c-0.3,0-0.6-0.1-0.9-0.4c-0.3-0.3-0.4-0.6-0.4-0.9c0-0.4,0.3-0.8,1-1.3s1.3-1,1.9-1.5
			c1.1-0.9,2.1-1.8,3.1-2.8c-1.7-0.7-2.5-1.3-2.5-2c0-0.4,0.1-0.7,0.4-1c0.3-0.3,0.6-0.4,0.9-0.4c0.3,0,0.7,0.1,1.3,0.4
			c1,0.5,1.6,0.7,1.8,0.8c3.9-5.1,6-8.8,6.5-11.1c0.1-0.8,0.3-1.6,0.4-2.4c0.2-0.6,0.6-0.9,1.4-0.9c0.6,0,1,0.2,1.2,0.7
			c0.1,0.3,0.2,0.7,0.3,1.3c0.1,0.7,0.2,1.2,0.2,1.5c0.9,3.7,2.7,8.4,5.3,14c0.4,0,0.9,0,1.3-0.1l0.6,0c1.1,0,1.6,0.5,1.6,1.4
			c0,1-0.6,1.5-1.7,1.5h-0.4c0.4,0.8,1,1.9,1.9,3.5C370.4,330.4,370.7,331.1,370.7,331.5z M363.2,323.1c-1.5-3.3-2.9-6.9-4-10.6
			c-1.4,3.1-3.1,6-5.2,8.6C357,322.1,360,322.8,363.2,323.1z"/>
		<path d="M394.8,327.5c0,0.9-0.7,1.9-2,3c-2.2,1.8-5,2.7-8.4,2.7c-3.7,0-6.5-1.1-8.6-3.3c-2-2.2-3-5.4-3-9.4c0-3.9,1-7.1,3.1-9.5
			c2.2-2.6,5.2-3.9,8.8-3.9c3.1,0,5.7,0.8,7.7,2.4c0.7,0.6,1.1,1.2,1.1,1.7c0,0.4-0.1,0.7-0.4,1s-0.6,0.4-1,0.4
			c-0.3,0-0.6-0.2-1.1-0.5c-2.1-1.5-4.2-2.2-6.3-2.2c-2.7,0-4.8,0.9-6.4,2.8c-1.6,1.9-2.4,4.5-2.4,7.7c0,6.6,2.9,9.8,8.6,9.8
			c3.3,0,5.6-0.8,7-2.4c0.3-0.4,0.6-0.8,1-1.3c0.3-0.4,0.7-0.5,1.1-0.5c0.4,0,0.8,0.1,1,0.4C394.7,326.7,394.8,327.1,394.8,327.5z"
			/>
		<path d="M418.8,311c0,0.4-0.1,0.7-0.4,1s-0.6,0.5-0.9,0.5c-0.2,0-0.5-0.1-0.9-0.2c-0.5-0.2-0.7-0.3-0.8-0.4
			c-1.3-0.4-3.7-0.7-7.3-0.9c0.1,4.4,0.2,7.7,0.2,9.8c0,4.1-0.1,7.5-0.3,10.4c-0.1,0.9-0.2,1.6-0.4,1.9c-0.2,0.4-0.6,0.6-1.2,0.6
			c-0.9,0-1.4-0.6-1.4-1.9c0,0,0.1-1.3,0.2-3.9c0.1-2.5,0.2-5,0.2-7.5c0-1.4,0-4.5-0.1-9.5c-3.5,0-6,0.5-7.5,1.3
			c-0.2,1.9-0.8,2.9-1.8,2.9c-0.8,0-1.2-0.6-1.2-1.8c0-1.9,0.6-3.2,1.8-3.8c2.1-1,5.3-1.5,9.6-1.5C414.8,308,418.8,309,418.8,311z"
			/>
		<path d="M443.5,331.5c0,0.9-0.5,1.4-1.4,1.4c-0.6,0-1.3-0.6-2.1-1.8c-0.6-0.9-1.5-2.6-2.7-5.2c-3.7-0.1-7.8-0.9-12.5-2.6
			c-3.7,3.9-6.2,5.8-7.5,5.8c-0.3,0-0.6-0.1-0.9-0.4c-0.3-0.3-0.4-0.6-0.4-0.9c0-0.4,0.3-0.8,1-1.3s1.3-1,1.9-1.5
			c1.1-0.9,2.1-1.8,3.1-2.8c-1.7-0.7-2.5-1.3-2.5-2c0-0.4,0.1-0.7,0.4-1c0.3-0.3,0.6-0.4,0.9-0.4c0.3,0,0.7,0.1,1.3,0.4
			c1,0.5,1.6,0.7,1.8,0.8c3.9-5.1,6-8.8,6.5-11.1c0.1-0.8,0.3-1.6,0.4-2.4c0.2-0.6,0.6-0.9,1.4-0.9c0.6,0,1,0.2,1.2,0.7
			c0.1,0.3,0.2,0.7,0.3,1.3c0.1,0.7,0.2,1.2,0.2,1.5c0.9,3.7,2.7,8.4,5.3,14c0.4,0,0.9,0,1.3-0.1l0.6,0c1.1,0,1.6,0.5,1.6,1.4
			c0,1-0.6,1.5-1.7,1.5h-0.4c0.4,0.8,1,1.9,1.9,3.5C443.2,330.4,443.5,331.1,443.5,331.5z M436,323.1c-1.5-3.3-2.9-6.9-4-10.6
			c-1.4,3.1-3.1,6-5.2,8.6C429.8,322.1,432.9,322.8,436,323.1z"/>
		<path d="M468.2,308.1c0,0.4-0.1,1.4-0.4,3c-0.3,1.9-0.6,3.7-0.7,5.1c-0.4,4-0.6,7.3-0.6,9.9c0,0.7,0,1.6,0.1,2.7
			c0.1,1.1,0.1,1.8,0.1,2.1c0,1.3-0.5,1.9-1.6,1.9c-0.7,0-1.4-0.3-2.1-1c-0.6-0.6-1.5-1.6-2.5-3c-3.6-4.9-6.7-10.4-9.6-16.6
			c-1,3.6-1.6,8.6-1.8,14.9c-0.1,2.7-0.1,4.2-0.2,4.4c-0.1,0.9-0.6,1.4-1.4,1.4c-0.8,0-1.2-0.5-1.5-1.5c-0.1-0.4-0.1-1.2-0.1-2.4
			c0-5.2,0.6-11,1.9-17.4c0.4-1.8,0.7-3,1.1-3.7c0.4-0.8,1-1.3,1.7-1.3c0.5,0,0.8,0.3,1.1,0.8c0,0,0.4,0.8,1,2.3
			c3.3,7.4,6.8,13.4,10.7,18.1v-1.1c0-6,0.5-11.6,1.4-16.8c0.2-1.2,0.4-2.1,0.7-2.6c0.3-0.6,0.7-0.9,1.2-0.9
			C467.8,306.4,468.2,306.9,468.2,308.1z"/>
		<path d="M495.1,320.5c0,4.1-1.1,7.2-3.3,9.5c-2.2,2.3-5.2,3.4-9.1,3.4c-3.4,0-6.2-1.2-8.4-3.5c-2.1-2.3-3.2-5.4-3.2-9.2
			c0-4.1,0.9-7.4,2.8-9.9c2-2.7,5-4.1,8.8-4.1c3.9,0,6.9,1.2,9.1,3.6S495.1,316.1,495.1,320.5z M492,320.6c0-3.5-0.8-6.3-2.4-8.1
			c-1.6-1.9-3.9-2.8-6.8-2.8c-2.8,0-4.9,0.9-6.4,2.8c-1.5,1.8-2.2,4.5-2.2,8c0,3.1,0.8,5.6,2.4,7.4c1.6,1.8,3.7,2.8,6.3,2.8
			c2.8,0,5-0.9,6.6-2.6C491.2,326.1,492,323.7,492,320.6z"/>
		<path d="M514.3,308.5c0,0.3-0.1,0.7-0.2,1.4s-0.2,1.1-0.2,1.4v0.4c0,1-0.1,1.7-0.2,2.1c-0.2,0.5-0.6,0.7-1.2,0.7
			c-0.7,0-1.2-0.4-1.4-1.3c-0.1-0.4-0.2-1.2-0.2-2.2c-1.3-0.9-2.7-1.4-4.1-1.4c-1.8,0-3.4,0.6-4.6,1.8c-1.2,1.2-1.8,2.7-1.8,4.6
			c0,1.6,0.4,2.7,1.1,3.4c0.5,0.5,1.7,1,3.5,1.7c1.6,0.5,2.7,1,3.3,1.2c1,0.5,1.8,1,2.3,1.7c0.8,0.9,1.2,2.2,1.2,3.7
			c0,1.6-0.6,2.9-1.8,3.8c-1.2,0.9-2.9,1.4-5,1.4c-1.6,0-2.9-0.4-3.8-1.2l0,2.9c0,1-0.5,1.5-1.4,1.5c-1,0-1.5-0.6-1.5-1.9v-2.1
			c0-2.8,0.1-4.6,0.2-5.5c0.2-1.2,0.7-1.8,1.4-1.8c0.6,0,1,0.2,1.2,0.7c0.1,0.3,0.2,0.7,0.3,1.2c0.1,0.7,0.2,1.2,0.2,1.4
			c0.3,1.3,1.3,1.9,2.9,1.9c2.8,0,4.3-0.8,4.3-2.5c0-0.8-0.3-1.5-0.9-2c-0.5-0.4-1.4-0.9-2.7-1.3l-2.6-0.9c-1.9-0.7-3.3-1.6-4-2.6
			c-0.8-1-1.2-2.5-1.2-4.5c0-2.8,0.9-5.1,2.6-6.8c1.8-1.8,4-2.6,6.8-2.6c1.6,0,3.1,0.4,4.5,1.3c0.3-1,0.8-1.5,1.5-1.5
			C513.8,306.6,514.3,307.2,514.3,308.5z"/>
		<path d="M521.2,309.9c0,0.3-0.2,1.3-0.6,2.9c-0.7,2.5-1.1,5.2-1.2,8.2c-0.1,1.3-0.1,2.1-0.2,2.3c-0.1,0.5-0.5,0.8-1,0.8
			c-0.5,0-0.9-0.3-1.2-1c-0.2-0.6-0.3-1.6-0.3-3c0-2.5,0.5-5.5,1.5-8.8c0.5-1.7,1.2-2.5,2-2.5C520.9,308.9,521.2,309.2,521.2,309.9z
			 M520.2,328.1c0,0.5-0.1,0.9-0.4,1.2c-0.3,0.3-0.7,0.5-1.1,0.5c-0.5,0-0.8-0.2-1.1-0.5c-0.3-0.3-0.5-0.7-0.5-1.2
			c0-0.5,0.2-0.8,0.5-1.2c0.3-0.3,0.7-0.5,1.2-0.5s0.8,0.1,1.1,0.4C520,327.2,520.2,327.6,520.2,328.1z"/>
		<path d="M528.6,309.9c0,0.3-0.2,1.3-0.6,2.9c-0.7,2.5-1.1,5.2-1.2,8.2c-0.1,1.3-0.1,2.1-0.2,2.3c-0.1,0.5-0.5,0.8-1,0.8
			c-0.5,0-0.9-0.3-1.2-1c-0.2-0.6-0.3-1.6-0.3-3c0-2.5,0.5-5.5,1.5-8.8c0.5-1.7,1.2-2.5,2-2.5C528.2,308.9,528.6,309.2,528.6,309.9z
			 M527.5,328.1c0,0.5-0.1,0.9-0.4,1.2c-0.3,0.3-0.7,0.5-1.1,0.5c-0.5,0-0.8-0.2-1.1-0.5c-0.3-0.3-0.5-0.7-0.5-1.2
			c0-0.5,0.2-0.8,0.5-1.2c0.3-0.3,0.7-0.5,1.2-0.5s0.8,0.1,1.1,0.4C527.4,327.2,527.5,327.6,527.5,328.1z"/>
	</g>
	<g>
	</g>
	<g>
	</g>
	<g>
	</g>
	<g>
	</g>
	<g>
	</g>
	<g>
	</g>
	<g>
	</g>
	<g>
	</g>
	<g>
	</g>
	<g>
	</g>
	<g>
	</g>
	<g>
	</g>
	<g>
	</g>
	<g>
	</g>
	<g>
	</g>
</g>
</svg>
