<?xml version="1.0" encoding="utf-8"?>
<!-- Generator: Adobe Illustrator 19.0.0, SVG Export Plug-In . SVG Version: 6.00 Build 0)  -->
<svg version="1.1" id="Capa_1" xmlns="http://www.w3.org/2000/svg" xmlns:xlink="http://www.w3.org/1999/xlink" x="0px" y="0px"
	 viewBox="0 0 216.3 137.3" style="enable-background:new 0 0 216.3 137.3;" xml:space="preserve">
<style type="text/css">
	.st0{opacity:0.3;}
	.st1{fill:#694D53;}
	.st2{fill:none;stroke:#694D53;stroke-width:2.34;stroke-linecap:round;stroke-miterlimit:10;}
	.st3{fill:#694D53;stroke:#694D53;stroke-width:6.5707;stroke-miterlimit:10;}
	.st4{fill:#01AEC4;}
	.st5{fill:#FCD2A5;}
	.st6{fill:#1C120C;}
	.st7{fill:#FAC695;}
	.st8{fill:#F29598;}
	.st9{fill:none;stroke:#E9495D;stroke-width:2.34;stroke-linecap:round;stroke-miterlimit:10;}
	.st10{fill:#6C2D13;}
	.st11{fill:#0497A3;}
	.st12{fill:#C67B12;}
	.st13{fill:#DD104D;}
	.st14{fill:#E9495D;}
	.st15{fill:#D6334E;}
	.st16{fill:#FBC161;stroke:#F6A119;stroke-width:6.5707;stroke-miterlimit:10;}
	.st17{fill:none;stroke:#F6A119;stroke-width:1.17;stroke-miterlimit:10;}
	.st18{fill:#B9181A;}
	.st19{fill:#0787C9;}
	.st20{fill:#FFFFFF;}
</style>
<g>
	<g>
		<g id="XMLID_484_" class="st0">
			<path id="XMLID_546_" class="st1" d="M198.9,135.5h-36.3c1.2-11,8.3-24.3,8.3-24.3h19.7C190.6,111.1,197.7,124.5,198.9,135.5z"/>
			<path id="XMLID_545_" class="st1" d="M203.4,75.4c0,0,18,36.2-14.5,36.2h-12.2c-32.5,0-14.5-36.2-14.5-36.2
				S182.7,63.3,203.4,75.4z"/>
			<ellipse id="XMLID_544_" class="st1" cx="170.9" cy="87" rx="3.7" ry="4.6"/>
			<ellipse id="XMLID_543_" class="st1" cx="194.8" cy="87" rx="3.7" ry="4.6"/>
			<path id="XMLID_542_" class="st1" d="M185.8,111.6c0,0,14.7-1.9,17.4-14c2.7-12.1-9.2-20.8-9.2-20.8s17.5,0,13.9,23
				C207.8,99.7,206.5,113.1,185.8,111.6z"/>
			<path id="XMLID_541_" class="st1" d="M206.3,98.7c0,3.5-3.1,6.4-6.9,6.4c-3.8,0-6.9-2.9-6.9-6.4c0-3.5,3.1-6.4,6.9-6.4
				C203.2,92.3,206.3,95.1,206.3,98.7z"/>
			<ellipse id="XMLID_540_" class="st1" cx="166.1" cy="99.3" rx="6.9" ry="6.4"/>
			<path id="XMLID_539_" class="st2" d="M188.4,97.3c0,2.3-2.5,4.2-5.6,4.2c-3.1,0-5.6-1.9-5.6-4.2"/>
			<path id="XMLID_538_" class="st1" d="M202.8,82.1c0,0,2.9,4.2,1.6,11.6c0,0,0.7-0.5,1.2-2.1c0,0,0.2,3.7-1.8,4.7
				c0,0,3.6-0.8,4.5-4.8c5.9-36.4-35.3-31.8-42.8-29c-7.5,2.8-8.6,1.3-9.1,0.6c0,0,1.6,3.5,4.7,3.4c0,0-7.7,4.4-7.3,12.7
				c0,0,0.6-3.4,2.9-4.3c0,0-2.7,7.1-0.1,11.2c0,0-0.2-5.7,2.2-6.2c0,0-2.2,5.1,0.7,7.3c0,0,1-4.9,6.4-5.4
				c5.3-0.4,11.3-0.4,13.7-3.8c0,0,0,0,0,0c0,0-1.4,3.2-2.8,3.3c0,0,8.9,1,12.9-4.2C193.9,71.6,202.8,82.1,202.8,82.1z"/>
			<path id="XMLID_537_" class="st1" d="M156.2,117.2c0,0,16.4,0.4,20.8-3.8c4.4-4.2,14,2.1,9.6,9.2c-4.4,7.1-30.4,2.7-30.4,2.7
				S150.7,119.8,156.2,117.2z"/>
			<path id="XMLID_536_" class="st1" d="M31.8,93.2c-0.6-3.4-1.2-5.8-1.2-5.8c0.2-0.1,0.3-0.1,0.5-0.2
				C31.4,89.1,31.6,91.1,31.8,93.2z"/>
			<path id="XMLID_535_" class="st1" d="M75.5,107.5c0,0,2.9,3,4.4,2.5c0,0-2.8,3.4-8.5,2.3c0,0,0.4,2.2,1.5,2.8
				c0.1,0,0.1,0.1,0.2,0.1c0.9,0.3-3.9,0.6-7.4-0.4c-1.6,1.1-3.8,1.9-6.4,1c0,0,2.9,3,4.4,2.5c0,0-2.8,3.4-8.5,2.3
				c0,0,0.4,2.2,1.5,2.8c0.1,0,0.1,0.1,0.2,0.1c1.2,0.4-7.6,0.9-10.3-1.9c-0.2-0.2-0.4-0.7-0.6-1.4c-2.5,1.6-5,2.6-4.5,2.1
				c0.1-0.1,0.1-0.1,0.2-0.2c0.7-1,0.1-3.2,0.1-3.2c-4.6,3.5-8.7,1.6-8.7,1.6c1.6-0.2,2.9-4.2,2.9-4.2c-4.5,4.4-10.6,0.1-10.6,0.1
				c2.4-0.5,2.6-3.9,2.6-3.9c-0.1,0-0.2,0.1-0.3,0.1c-3.6,1.5-9.5,1-8.5,0.7c0.1,0,0.2-0.1,0.2-0.1c1.1-0.6,1.5-2.8,1.5-2.8
				c-5.7,1.1-8.5-2.3-8.5-2.3c1.5,0.5,4.4-2.5,4.4-2.5c-5.9,2-9.6-4.5-9.6-4.5c2.3,0.6,4.1-2.4,4.1-2.4c-3.9-0.7-3.7-4.2-3.7-4.2
				c12.1,7.6,17.2-20.5,17.2-20.5c2.4-0.1,4.1,4.4,5,10.2c-0.2,0-0.4,0.1-0.5,0.2c0,0,0.7,2.4,1.2,5.8c-0.2-2.1-0.4-4.1-0.7-6
				c3.8-0.7,10.5,9.4,15.1,18.6c0.5-9.4,2.3-18.7,5.9-18.6c0,0,3.1,16.9,10.2,20.9c-0.6-11.1,1-29.4,5.9-29.3
				c0,0,5.2,28.1,17.3,20.5c0,0,0.2,3.4-3.7,4.2c0,0,1.8,3,4.1,2.4C85.1,103,81.5,109.6,75.5,107.5z"/>
			<path id="XMLID_534_" class="st1" d="M31.8,93.2c-0.6-3.4-1.2-5.8-1.2-5.8c0.2-0.1,0.3-0.1,0.5-0.2
				C31.4,89.1,31.6,91.1,31.8,93.2z"/>
			<path id="XMLID_533_" class="st1" d="M64.2,135.5H27.8c0.9-11.1,8.4-25.1,8.4-25.1h19.7C55.8,110.4,63.2,124.4,64.2,135.5z"/>
			<path id="XMLID_532_" class="st1" d="M25.2,74.7c0,0-18,36.2,14.5,36.2h12.2c32.5,0,14.5-36.2,14.5-36.2S45.9,62.6,25.2,74.7z"/>
			<ellipse id="XMLID_531_" class="st1" cx="57.7" cy="86.3" rx="3.7" ry="4.6"/>
			<ellipse id="XMLID_530_" class="st1" cx="33.8" cy="86.3" rx="3.7" ry="4.6"/>
			<path id="XMLID_529_" class="st1" d="M42.8,110.9c0,0-14.7-1.9-17.4-14C22.8,84.7,34.6,76,34.6,76s-17.5,0-13.9,23
				C20.8,99,22.1,112.4,42.8,110.9z"/>
			<ellipse id="XMLID_528_" class="st1" cx="29.2" cy="98" rx="6.9" ry="6.4"/>
			<ellipse id="XMLID_527_" class="st1" cx="62.4" cy="98.6" rx="6.9" ry="6.4"/>
			<path id="XMLID_526_" class="st1" d="M38.7,96.3H54c0,0-0.6,6.6-7.7,6.6C39.3,102.9,38.7,96.3,38.7,96.3z"/>
			<path id="XMLID_525_" class="st1" d="M70.5,116.5c0,0-16.4,0.4-20.8-3.8c-4.4-4.2-14,2.1-9.6,9.2c4.4,7.1,30.4,2.7,30.4,2.7
				S75.9,119,70.5,116.5z"/>
			<path id="XMLID_524_" class="st1" d="M65,81.3c0,0,2.8,4,1.6,11.2c0,0,0.7-0.5,1.2-2c0,0,0.1,3.6-1.7,4.5c0,0,3.5-0.8,4.3-4.7
				c5.7-35.2-34.2-30.6-41.4-28c-7.2,2.7-8.4,1.3-8.8,0.6c0,0,1.5,3.4,4.6,3.3c0,0-7.5,4.3-7.1,12.2c0,0,0.6-3.3,2.8-4.2
				c0,0-2.7,6.8-0.1,10.8c0,0-0.2-5.5,2.2-6c0,0-2.2,4.9,0.7,7c0,0,1-4.7,6.2-5.2c5.1-0.4,10.9-0.4,13.3-3.7c0,0,0,0,0,0
				c0,0-1.3,3.1-2.7,3.1c0,0,8.6,1,12.5-4.1C56.4,71.2,65,81.3,65,81.3z"/>
			<path id="XMLID_523_" class="st1" d="M22.3,82.1c0,0-2.3,5.5-1,8.1c0,0,0.3-2.4,1-3.3c0,0-0.2,1,0.3,1.2c0,0,1.1-6.9,5.7-7.1
				C32.9,80.8,25.6,78.6,22.3,82.1z"/>
			<path id="XMLID_522_" class="st1" d="M28.3,80.6c0.4-0.3,1,0.3,1.5,1.3l0.6,1.2c0.4,1,0.1,1.2-0.7,0.5l-1-0.9
				c-0.8-0.7-1.2-1.5-0.8-1.8L28.3,80.6z"/>
			<path id="XMLID_521_" class="st1" d="M26,83.1c0.2-0.4,1-0.3,1.9,0.3l1.1,0.8c0.9,0.6,0.7,0.9-0.3,0.8l-1.3-0.2
				c-1-0.2-1.7-0.7-1.6-1.1L26,83.1z"/>
			<path id="XMLID_520_" class="st1" d="M63,79.4c-0.4-0.3-1,0.3-1.5,1.3L61,81.9c-0.4,1-0.1,1.2,0.7,0.5l1-0.9
				c0.8-0.7,1.2-1.5,0.8-1.8L63,79.4z"/>
			<path id="XMLID_519_" class="st1" d="M65.3,82c-0.2-0.4-1-0.3-1.9,0.3l-1.1,0.8c-0.9,0.6-0.7,0.9,0.3,0.8l1.3-0.2
				c1-0.2,1.7-0.7,1.6-1.1L65.3,82z"/>
			<path id="XMLID_518_" class="st3" d="M177.7,65.2l-17.2,14.7c-5.6,4.8-9.3,14.5-8.2,21.6l3.4,21.7c1.1,7.1-3.4,10-10.1,6.4
				l-16-8.5l-4.5-2.4c-1.7-0.9-3.8-1.6-6-2.1c-6.1-1.4-13.5-1-18.5,1.2c-0.1,0-0.1,0-0.1,0.1l-7.3,3.3l-13.8,6.2
				c-6.9,3.1-11.3-0.1-9.8-7.1l4.5-21.4c1.3-6.1-0.9-14.4-5.1-19.8c-0.6-0.8-1.3-1.6-2-2.2L62.2,72c0,0,0,0,0,0L50.8,60.9
				c-5.3-5.2-3.5-10,4.1-10.8l23.3-2.4C85.8,47,94.9,41.2,98.4,35l10.9-19.3c3.5-6.3,9.1-6.1,12.3,0.4l9.9,20
				c3.2,6.5,12,12.9,19.6,14.1l23.1,3.9C181.7,55.4,183.3,60.4,177.7,65.2z"/>
			<path id="XMLID_517_" class="st1" d="M157.7,117.2c0,0-6.4-3.1-10,0c-3.7,3.1-0.3,7.6,1.6,8.4c1.9,0.7,8.1,0.3,8.5-0.2
				C158.2,124.9,160.8,122.5,157.7,117.2z"/>
			<path id="XMLID_516_" class="st1" d="M67.8,116.5c0,0,6.4-3.1,10,0c3.7,3.1,0.3,7.6-1.6,8.4c-1.9,0.7-8.1,0.3-8.5-0.2
				C67.4,124.2,64.8,121.8,67.8,116.5z"/>
		</g>
		<g id="XMLID_381_">
			<g id="XMLID_416_">
				<path id="XMLID_449_" class="st4" d="M193,129.6h-36.3c1.2-11,8.3-24.3,8.3-24.3h19.7C184.7,105.3,191.8,118.7,193,129.6z"/>
				<g id="XMLID_441_">
					<path id="XMLID_448_" class="st5" d="M197.5,69.6c0,0,18,36.2-14.5,36.2h-12.2c-32.5,0-14.5-36.2-14.5-36.2
						S176.8,57.5,197.5,69.6z"/>
					<ellipse id="XMLID_447_" class="st6" cx="165" cy="81.1" rx="3.7" ry="4.6"/>
					<ellipse id="XMLID_446_" class="st6" cx="188.9" cy="81.1" rx="3.7" ry="4.6"/>
					<path id="XMLID_445_" class="st7" d="M179.9,105.7c0,0,14.7-1.9,17.4-14c2.7-12.1-9.2-20.8-9.2-20.8s17.5,0,13.9,23
						C202,93.9,200.6,107.2,179.9,105.7z"/>
					<path id="XMLID_444_" class="st8" d="M200.5,92.8c0,3.5-3.1,6.4-6.9,6.4c-3.8,0-6.9-2.9-6.9-6.4c0-3.5,3.1-6.4,6.9-6.4
						C197.4,86.4,200.5,89.3,200.5,92.8z"/>
					<ellipse id="XMLID_443_" class="st8" cx="160.3" cy="93.5" rx="6.9" ry="6.4"/>
					<path id="XMLID_442_" class="st9" d="M182.5,91.4c0,2.3-2.5,4.2-5.6,4.2c-3.1,0-5.6-1.9-5.6-4.2"/>
				</g>
				<path id="XMLID_440_" class="st10" d="M196.9,76.3c0,0,2.9,4.2,1.6,11.6c0,0,0.7-0.5,1.2-2.1c0,0,0.2,3.7-1.8,4.7
					c0,0,3.6-0.8,4.5-4.8c5.9-36.4-35.3-31.8-42.8-29c-7.5,2.8-8.6,1.3-9.1,0.6c0,0,1.6,3.5,4.7,3.4c0,0-7.7,4.4-7.3,12.7
					c0,0,0.6-3.4,2.9-4.3c0,0-2.7,7.1-0.1,11.2c0,0-0.2-5.7,2.2-6.2c0,0-2.2,5.1,0.7,7.3c0,0,1-4.9,6.4-5.4
					c5.3-0.4,11.3-0.4,13.7-3.8c0,0,0,0,0,0c0,0-1.4,3.2-2.8,3.3c0,0,8.9,1,12.9-4.2C188,65.8,196.9,76.3,196.9,76.3z"/>
				<path id="XMLID_439_" class="st11" d="M150.3,111.4c0,0,16.4,0.4,20.8-3.8c4.4-4.2,14,2.1,9.6,9.2c-4.4,7.1-30.4,2.7-30.4,2.7
					S144.9,113.9,150.3,111.4z"/>
				<path id="XMLID_438_" class="st12" d="M25.9,87.4c-0.6-3.4-1.2-5.8-1.2-5.8c0.2-0.1,0.3-0.1,0.5-0.2
					C25.5,83.3,25.8,85.3,25.9,87.4z"/>
				<path id="XMLID_437_" class="st10" d="M69.7,101.7c0,0,2.9,3,4.4,2.5c0,0-2.8,3.4-8.5,2.3c0,0,0.4,2.2,1.5,2.8
					c0.1,0,0.1,0.1,0.2,0.1c0.9,0.3-3.9,0.6-7.4-0.4c-1.6,1.1-3.8,1.9-6.4,1c0,0,2.9,3,4.4,2.5c0,0-2.8,3.4-8.5,2.3
					c0,0,0.4,2.2,1.5,2.8c0.1,0,0.1,0.1,0.2,0.1c1.2,0.4-7.6,0.9-10.3-1.9c-0.2-0.2-0.4-0.7-0.6-1.4c-2.5,1.6-5,2.6-4.5,2.1
					c0.1-0.1,0.1-0.1,0.2-0.2c0.7-1,0.1-3.2,0.1-3.2c-4.6,3.5-8.7,1.6-8.7,1.6c1.6-0.2,2.9-4.2,2.9-4.2c-4.5,4.4-10.6,0.1-10.6,0.1
					c2.4-0.5,2.6-3.9,2.6-3.9c-0.1,0-0.2,0.1-0.3,0.1c-3.6,1.5-9.5,1-8.5,0.7c0.1,0,0.2-0.1,0.2-0.1c1.1-0.6,1.5-2.8,1.5-2.8
					c-5.7,1.1-8.5-2.3-8.5-2.3c1.5,0.5,4.4-2.5,4.4-2.5c-5.9,2-9.6-4.5-9.6-4.5C4.1,96,5.9,93,5.9,93c-3.9-0.7-3.7-4.2-3.7-4.2
					c12.1,7.6,17.2-20.5,17.2-20.5c2.4-0.1,4.1,4.4,5,10.2c-0.2,0-0.4,0.1-0.5,0.2c0,0,0.7,2.4,1.2,5.8c-0.2-2.1-0.4-4.1-0.7-6
					C28.3,77.8,35,88,39.6,97.1c0.5-9.4,2.3-18.7,5.9-18.6c0,0,3.1,16.9,10.2,20.9c-0.6-11.1,1-29.4,5.9-29.3
					c0,0,5.2,28.1,17.3,20.5c0,0,0.2,3.4-3.7,4.2c0,0,1.8,3,4.1,2.4C79.3,97.2,75.6,103.7,69.7,101.7z"/>
				<path id="XMLID_436_" class="st12" d="M25.9,87.4c-0.6-3.4-1.2-5.8-1.2-5.8c0.2-0.1,0.3-0.1,0.5-0.2
					C25.5,83.3,25.8,85.3,25.9,87.4z"/>
				<path id="XMLID_435_" class="st13" d="M58.3,129.6H21.9c0.9-11.1,8.4-25.1,8.4-25.1H50C50,104.6,57.4,118.5,58.3,129.6z"/>
				<g id="XMLID_427_">
					<path id="XMLID_434_" class="st5" d="M19.4,68.9c0,0-18,36.2,14.5,36.2h12.2c32.5,0,14.5-36.2,14.5-36.2S40,56.8,19.4,68.9z"/>
					<ellipse id="XMLID_433_" class="st6" cx="51.8" cy="80.4" rx="3.7" ry="4.6"/>
					<ellipse id="XMLID_432_" class="st6" cx="28" cy="80.4" rx="3.7" ry="4.6"/>
					<path id="XMLID_431_" class="st7" d="M37,105c0,0-14.7-1.9-17.4-14c-2.7-12.1,9.2-20.8,9.2-20.8s-17.5,0-13.9,23
						C14.9,93.1,16.3,106.5,37,105z"/>
					<ellipse id="XMLID_430_" class="st8" cx="23.3" cy="92.1" rx="6.9" ry="6.4"/>
					<ellipse id="XMLID_429_" class="st8" cx="56.6" cy="92.8" rx="6.9" ry="6.4"/>
					<path id="XMLID_428_" class="st14" d="M32.9,90.4h15.3c0,0-0.6,6.6-7.7,6.6C33.5,97.1,32.9,90.4,32.9,90.4z"/>
				</g>
				<path id="XMLID_426_" class="st15" d="M64.6,110.7c0,0-16.4,0.4-20.8-3.8c-4.4-4.2-14,2.1-9.6,9.2c4.4,7.1,30.4,2.7,30.4,2.7
					S70.1,113.2,64.6,110.7z"/>
				<path id="XMLID_425_" class="st10" d="M59.1,75.5c0,0,2.8,4,1.6,11.2c0,0,0.7-0.5,1.2-2c0,0,0.1,3.6-1.7,4.5
					c0,0,3.5-0.8,4.3-4.7c5.7-35.2-34.2-30.6-41.4-28c-7.2,2.7-8.4,1.3-8.8,0.6c0,0,1.5,3.4,4.6,3.3c0,0-7.5,4.3-7.1,12.2
					c0,0,0.6-3.3,2.8-4.2c0,0-2.7,6.8-0.1,10.8c0,0-0.2-5.5,2.2-6c0,0-2.2,4.9,0.7,7c0,0,1-4.7,6.2-5.2c5.1-0.4,10.9-0.4,13.3-3.7
					c0,0,0,0,0,0c0,0-1.3,3.1-2.7,3.1c0,0,8.6,1,12.5-4.1C50.5,65.4,59.1,75.5,59.1,75.5z"/>
				<path id="XMLID_424_" class="st10" d="M16.4,76.2c0,0-2.3,5.5-1,8.1c0,0,0.3-2.4,1-3.3c0,0-0.2,1,0.3,1.2c0,0,1.1-6.9,5.7-7.1
					C27,74.9,19.8,72.8,16.4,76.2z"/>
				<path id="XMLID_423_" class="st6" d="M22.4,74.8c0.4-0.3,1,0.3,1.5,1.3l0.6,1.2c0.4,1,0.1,1.2-0.7,0.5l-1-0.9
					c-0.8-0.7-1.2-1.5-0.8-1.8L22.4,74.8z"/>
				<path id="XMLID_422_" class="st6" d="M20.1,77.3c0.2-0.4,1-0.3,1.9,0.3l1.1,0.8c0.9,0.6,0.7,0.9-0.3,0.8l-1.3-0.2
					c-1-0.2-1.7-0.7-1.6-1.1L20.1,77.3z"/>
				<path id="XMLID_421_" class="st6" d="M57.2,73.6c-0.4-0.3-1,0.3-1.5,1.3l-0.6,1.2c-0.4,1-0.1,1.2,0.7,0.5l1-0.9
					c0.8-0.7,1.2-1.5,0.8-1.8L57.2,73.6z"/>
				<path id="XMLID_420_" class="st6" d="M59.5,76.1c-0.2-0.4-1-0.3-1.9,0.3l-1.1,0.8c-0.9,0.6-0.7,0.9,0.3,0.8l1.3-0.2
					c1-0.2,1.7-0.7,1.6-1.1L59.5,76.1z"/>
				<path id="XMLID_419_" class="st16" d="M171.9,59.3L154.7,74c-5.6,4.8-9.3,14.5-8.2,21.6l3.4,21.7c1.1,7.1-3.4,10-10.1,6.4
					l-16-8.5l-4.5-2.4c-1.7-0.9-3.8-1.6-6-2.1c-6.1-1.4-13.5-1-18.5,1.2c-0.1,0-0.1,0-0.1,0.1l-7.3,3.3l-13.8,6.2
					c-6.9,3.1-11.3-0.1-9.8-7.1L68.3,93c1.3-6.1-0.9-14.4-5.1-19.8c-0.6-0.8-1.3-1.6-2-2.2l-4.9-4.7c0,0,0,0,0,0L44.9,55.1
					c-5.3-5.2-3.5-10,4.1-10.8l23.3-2.4c7.6-0.8,16.7-6.5,20.3-12.8l10.9-19.3c3.5-6.3,9.1-6.1,12.3,0.4l9.9,20
					c3.2,6.5,12,12.9,19.6,14.1l23.1,3.9C175.9,49.6,177.5,54.5,171.9,59.3z"/>
				<path id="XMLID_418_" class="st5" d="M151.9,111.4c0,0-6.4-3.1-10,0c-3.7,3.1-0.3,7.6,1.6,8.4c1.9,0.7,8.1,0.3,8.5-0.2
					C152.3,119,154.9,116.6,151.9,111.4z"/>
				<path id="XMLID_417_" class="st5" d="M61.9,110.7c0,0,6.4-3.1,10,0c3.7,3.1,0.3,7.6-1.6,8.4c-1.9,0.7-8.1,0.3-8.5-0.2
					C61.5,118.3,58.9,115.9,61.9,110.7z"/>
			</g>
		</g>
	</g>
	<line id="XMLID_2_" class="st17" x1="4.1" y1="132.1" x2="213.5" y2="132.1"/>
	<g id="XMLID_1_">
		<path id="XMLID_14_" class="st18" d="M126.2,44.3c0,0-1.9,4.4-20.1,4.4s-20.6,4.7-20.8,5c-0.2,0.2-1.3,1.2-1.2,6.7
			c0.1,5.5,1,13.6,3.3,18.9s4.4,9.2,8,12.8c3.6,3.6,9.8,8.9,9.8,8.9s9.8-7.3,13.5-13.8s3.3-4.2,6.5-16.7
			C125.1,70.5,126.9,57.1,126.2,44.3z"/>
		<path id="XMLID_12_" class="st19" d="M124.5,47.6c0,0-1.6,2.8-18.5,2.9S86.9,54.8,86.7,55s-1.2,1.1-1.1,6.2s0.9,12.7,3.1,17.6
			c2.2,4.9,4.1,8.6,7.4,11.9c3.3,3.3,9.1,8.2,9.1,8.2s9.1-6.8,12.5-12.8c3.4-6.1,3.1-3.9,6-15.5C123.7,70.6,125.1,59.4,124.5,47.6z"
			/>
		<path id="XMLID_11_" class="st18" d="M87.8,54.9c0,0,7,6.2,11.5,17.4l3.5,0.5l-2.6,0.9l1.2,2.1l3.2-0.7l-2.7,1.6
			c0,0,3.7,8.3,10.4,6.2c0,0,4.9,3.8,3.3,6.3l5.3-7.6c0,0-3.2,4.7-5,2.3l-2.7-2.8c0,0,3.4-3.2-3-10.8l-1.5,5.5c0,0,0.9-5.6-0.3-6.9
			C107.3,67.8,96.9,57.7,87.8,54.9z"/>
		<path id="XMLID_8_" class="st20" d="M110.3,73.5l-1.4,2.8l3.9,4.4C112.8,80.7,114.6,76.8,110.3,73.5z"/>
		<path id="XMLID_7_" class="st20" d="M103.8,76.8l2-2.1c-0.4-0.1,4.6,6.5,6.5,8C112.2,82.8,107.8,83.5,103.8,76.8z"/>
		<path id="XMLID_6_" class="st20" d="M93.4,58.3c0,0,7.4,5.8,15,17.9c0,0,0.3-6.2-3.1-9C101.9,64.5,94.2,58.5,93.4,58.3z"/>
		<path id="XMLID_5_" class="st20" d="M90.9,57.1c0,0,7.2,7.5,9.6,14.4l3.5,1.2l-2.4,0.9l0.6,1l3.4-0.3c0,0-3.8-6-6.2-8.6
			C97.1,63.1,93.8,58.9,90.9,57.1z"/>
	</g>
</g>
<g id="XMLID_136_">
</g>
<g id="XMLID_137_">
</g>
<g id="XMLID_138_">
</g>
<g id="XMLID_139_">
</g>
<g id="XMLID_140_">
</g>
<g id="XMLID_141_">
</g>
</svg>
