<?xml version="1.0" encoding="utf-8"?>
<!-- Generator: Adobe Illustrator 19.0.0, SVG Export Plug-In . SVG Version: 6.00 Build 0)  -->
<svg version="1.1" xmlns="http://www.w3.org/2000/svg" xmlns:xlink="http://www.w3.org/1999/xlink" x="0px" y="0px"
	 viewBox="0 0 210.6 306.6" style="enable-background:new 0 0 210.6 306.6;" xml:space="preserve">
<style type="text/css">
	.st0{fill:#FABA5A;}
	.st1{fill:#3FB57C;}
	.st2{fill:#E6E7E7;}
	.st3{fill:#FFFFFF;}
	.st4{fill:#BDBEBF;}
	.st5{fill:#D2D3D4;}
	.st6{fill:#95C552;}
	.st7{fill:#FBD2B0;}
	.st8{fill:#BB282D;}
	.st9{fill:#EC353C;}
	.st10{fill:none;stroke:#F79F38;stroke-width:17.9079;stroke-linecap:round;stroke-miterlimit:10;}
	.st11{fill:#F8BBA6;}
	.st12{fill:#F1F1F2;}
	.st13{fill:#FAED2E;}
	.st14{fill:#FFD612;}
	.st15{fill:#FFC52B;}
	.st16{fill:none;stroke:#BB282D;stroke-width:1.4173;stroke-miterlimit:10;}
	.st17{fill:#9F5F32;}
	.st18{fill:#FBC6A0;}
	.st19{fill:#8A674B;}
	.st20{fill:#231F20;}
	.st21{fill:#761027;}
	.st22{fill:#F3889A;}
	.st23{fill:none;stroke:#F8BBA6;stroke-width:1.4173;stroke-miterlimit:10;}
	.st24{fill:#9A3590;}
	.st25{fill:#BC703F;}
</style>
<g id="BACKGROUND">
</g>
<g id="OBJECTS">
	<g>
		<g>
			<rect x="83.7" y="236.3" class="st0" width="13.6" height="59.7"/>
			<g>
				<g>
					<path class="st1" d="M97,292.5c-1.7,0.7-4,1.1-6.5,1.1c-2.7,0-5.2-0.5-6.9-1.3c-9,1-12.7,10-10.9,11.9
						c2.5,2.6,11.7,3.6,18.3,0.4c2.5-1.2,7-0.2,7-2.8V294C98.1,293.3,97.7,292.8,97,292.5z"/>
					<path class="st2" d="M76.8,295c1.8,0.7,3,1.7,4.2,2.9c0.6-0.6,1.3-1.1,1.9-1.7c-1.5-0.9-3.2-1.7-4.8-2.1
						C77.7,294.4,77.2,294.7,76.8,295z"/>
					<path class="st3" d="M78.1,294.1c1.7,0.4,3.3,1.2,4.8,2.1c0.6-0.5,1.2-0.9,1.8-1.3c-1.3-0.9-2.6-1.6-4.2-2
						C79.7,293.3,78.9,293.7,78.1,294.1z"/>
					<path class="st4" d="M72.4,301.8c-0.2,1.1-0.1,2,0.4,2.5c2.5,2.6,11.7,3.6,18.3,0.4c2.5-1.2,7-0.2,7-2.8v-1.6
						c-2.1,0.2-5.5,0.7-9.7,2.6C83.4,305,77.3,303.8,72.4,301.8z"/>
					<path class="st5" d="M72.4,301.8c2.9,1.2,6.2,2.1,9.5,2.2c-0.7-3.9-3.3-6.9-6.5-7.6C73.6,298.2,72.7,300.2,72.4,301.8z"/>
					<path class="st3" d="M79.7,299.2c0.4-0.5,0.8-0.9,1.3-1.3c-1.2-1.2-2.4-2.2-4.2-2.9c-0.6,0.4-1.1,0.9-1.5,1.4
						C77,296.8,78.5,297.8,79.7,299.2z"/>
					<circle class="st6" cx="93.2" cy="297" r="1.9"/>
					<g>
						<path class="st3" d="M72.4,301.7c0-0.1,0.1-0.3,0.1-0.4C72.4,301.4,72.4,301.5,72.4,301.7z"/>
					</g>
					<path class="st2" d="M83.6,292.3c-1.1,0.1-2.1,0.4-3,0.7c1.5,0.3,2.9,1,4.2,2c0.8-0.5,1.7-1.1,2.7-1.5
						C86,293.1,84.7,292.8,83.6,292.3z"/>
				</g>
			</g>
		</g>
		<g>
			<rect x="113.3" y="236.3" class="st0" width="13.6" height="59.7"/>
			<g>
				<g>
					<path class="st1" d="M113.3,292.5c1.7,0.7,4,1.1,6.5,1.1c2.7,0,5.2-0.5,6.9-1.3c9,1,12.7,10,10.9,11.9
						c-2.5,2.6-11.7,3.6-18.3,0.4c-2.5-1.2-7-0.2-7-2.8V294C112.2,293.3,112.7,292.8,113.3,292.5z"/>
					<path class="st2" d="M133.5,295c-1.8,0.7-3,1.7-4.2,2.9c-0.6-0.6-1.3-1.1-1.9-1.7c1.5-0.9,3.2-1.7,4.8-2.1
						C132.7,294.4,133.1,294.7,133.5,295z"/>
					<path class="st3" d="M132.2,294.1c-1.7,0.4-3.3,1.2-4.8,2.1c-0.6-0.5-1.2-0.9-1.8-1.3c1.3-0.9,2.7-1.6,4.2-2
						C130.6,293.3,131.5,293.7,132.2,294.1z"/>
					<path class="st4" d="M138,301.8c0.2,1.1,0.1,2-0.4,2.5c-2.5,2.6-11.7,3.6-18.3,0.4c-2.5-1.2-7-0.2-7-2.8v-1.6
						c2.1,0.2,5.5,0.7,9.7,2.6C126.9,305,133,303.8,138,301.8z"/>
					<path class="st5" d="M138,301.8c-2.9,1.2-6.2,2.1-9.5,2.2c0.7-3.9,3.3-6.9,6.5-7.6C136.7,298.2,137.7,300.2,138,301.8z"/>
					<path class="st3" d="M130.7,299.2c-0.4-0.5-0.8-0.9-1.3-1.3c1.2-1.2,2.4-2.2,4.2-2.9c0.6,0.4,1.1,0.9,1.5,1.4
						C133.3,296.8,131.8,297.8,130.7,299.2z"/>
					<circle class="st6" cx="117.1" cy="297" r="1.9"/>
					<g>
						<path class="st3" d="M138,301.7c0-0.1-0.1-0.3-0.1-0.4C137.9,301.4,137.9,301.5,138,301.7z"/>
					</g>
					<path class="st2" d="M126.7,292.3c1.1,0.1,2.1,0.4,3,0.7c-1.5,0.3-2.9,1-4.2,2c-0.8-0.5-1.7-1.1-2.7-1.5
						C124.4,293.1,125.7,292.8,126.7,292.3z"/>
				</g>
			</g>
		</g>
		<g>
			<g>
				<path class="st7" d="M69.6,215.1c8.9-4,15.7-14.9,20.1-32.3c0.8-3-1.1-6.2-4.1-6.9c-3-0.8-6.2,1.1-6.9,4.1
					c-3.9,15.1-9.5,24.1-15.7,25.3c-8.7,1.7-19.7-10.3-22.9-14.6c-1.9-2.5-5.4-3.1-8-1.2c-2.5,1.9-3.1,5.4-1.2,8
					c1.7,2.3,17,22.4,34.3,19C66.7,216.2,68.2,215.8,69.6,215.1z"/>
				<path class="st7" d="M35.7,186.3c-4.7,0.1-4.9,1.6-6.3,5.3c-1.4,3.7-2.5,6.7,1.2,8.1c3.7,1.4,9.5,0.1,10.9-3.6
					C42.9,192.5,39.4,187.7,35.7,186.3z"/>
				<path class="st7" d="M23.6,194.4c-0.6-0.2-1.2,0.1-1.4,0.6l0,0c-0.2,0.6,0.1,1.2,0.6,1.4l7.9,3c0.6,0.2,1.2-0.1,1.4-0.6l0,0
					c0.2-0.6-0.1-1.2-0.6-1.4L23.6,194.4z"/>
				<path class="st7" d="M22,190.1c-0.6-0.2-1.2,0.1-1.4,0.6l0,0c-0.2,0.6,0.1,1.2,0.6,1.4l7.9,3c0.6,0.2,1.2-0.1,1.4-0.6l0,0
					c0.2-0.6-0.1-1.2-0.6-1.4L22,190.1z"/>
				<path class="st7" d="M22.3,186.6c-0.6-0.2-1.2,0.1-1.4,0.6l0,0c-0.2,0.6,0.1,1.2,0.6,1.4l7.9,3c0.6,0.2,1.2-0.1,1.4-0.6l0,0
					c0.2-0.6-0.1-1.2-0.6-1.4L22.3,186.6z"/>
				<path class="st7" d="M25.1,184c-0.6-0.2-1.2,0.1-1.4,0.6l0,0c-0.2,0.6,0.1,1.2,0.6,1.4l7.9,3c0.6,0.2,1.2-0.1,1.4-0.6l0,0
					c0.2-0.6-0.1-1.2-0.6-1.4L25.1,184z"/>
				<path class="st7" d="M36.7,182.9c0-0.4-0.7-0.7-1.4-0.7l0,0c-0.7,0-1.3,0.4-1.3,0.9l0.4,5.9c0,0.4,0.7,0.7,1.4,0.7l0,0
					c0.7,0,1.3-0.4,1.3-0.9L36.7,182.9z"/>
			</g>
			
				<rect x="75.7" y="185.5" transform="matrix(0.9535 0.3015 -0.3015 0.9535 60.6133 -16.0545)" class="st8" width="13.3" height="5.7"/>
			<circle class="st9" cx="84.2" cy="180.3" r="9.3"/>
		</g>
		<g>
			<g>
				<path class="st7" d="M157.9,240.8c0.1,0,0.1,0,0.2,0c3.1-0.1,5.6-2.7,5.5-5.9c-0.7-24.1-11.7-38.6-20.9-46.6
					c-9.9-8.6-19.8-11.5-20.2-11.6c-3-0.9-6.2,0.9-7.1,3.9c-0.9,3,0.9,6.2,3.9,7c1.3,0.4,31.7,9.9,32.8,47.6
					C152.3,238.4,154.9,240.8,157.9,240.8z"/>
				<path class="st10" d="M157.9,235.1"/>
				<path class="st7" d="M150.6,242.7c1.8,4.4,3.2,4,7.2,4c4,0,7.2,0,7.2-4c0-4-3.2-8.9-7.2-8.9
					C153.8,233.8,150.6,238.7,150.6,242.7z"/>
				<path class="st7" d="M162.4,251.1c0,0.6,0.5,1.1,1.1,1.1l0,0c0.6,0,1.1-0.5,1.1-1.1v-8.4c0-0.6-0.5-1.1-1.1-1.1l0,0
					c-0.6,0-1.1,0.5-1.1,1.1V251.1z"/>
				<path class="st7" d="M159,254.1c0,0.6,0.5,1.1,1.1,1.1l0,0c0.6,0,1.1-0.5,1.1-1.1v-8.4c0-0.6-0.5-1.1-1.1-1.1l0,0
					c-0.6,0-1.1,0.5-1.1,1.1V254.1z"/>
				<path class="st7" d="M155.6,255.1c0,0.6,0.5,1.1,1.1,1.1l0,0c0.6,0,1.1-0.5,1.1-1.1v-8.4c0-0.6-0.5-1.1-1.1-1.1l0,0
					c-0.6,0-1.1,0.5-1.1,1.1V255.1z"/>
				<path class="st7" d="M152.1,253.4c0,0.6,0.5,1.1,1.1,1.1l0,0c0.6,0,1.1-0.5,1.1-1.1V245c0-0.6-0.5-1.1-1.1-1.1l0,0
					c-0.6,0-1.1,0.5-1.1,1.1V253.4z"/>
				<path class="st7" d="M147.1,242.9c-0.4,0.2-0.5,0.9-0.1,1.5l0,0c0.3,0.7,0.9,1.1,1.3,0.9l5.4-2.4c0.4-0.2,0.5-0.9,0.1-1.5l0,0
					c-0.3-0.7-0.9-1.1-1.3-0.9L147.1,242.9z"/>
			</g>
			
				<rect x="125.8" y="184.2" transform="matrix(-0.688 0.7257 -0.7257 -0.688 359.3365 219.4995)" class="st8" width="13.3" height="5.7"/>
			<circle class="st9" cx="127.1" cy="180.6" r="9.2"/>
		</g>
		<g>
			<g>
				<g>
					<path class="st9" d="M79.9,211.2c0.6-9.5,2.2-23.9,4.4-29.6c4.5-11.5,11.9-9,20.9-9c9,0,16.4-2.4,20.9,9
						c2.2,5.7,3.8,20.1,4.4,29.6c2.2,33.2-7.7,31-25.3,31C87.6,242.2,77.7,244.3,79.9,211.2z"/>
					<ellipse class="st8" cx="105.2" cy="176.2" rx="10.3" ry="5.9"/>
					<path class="st7" d="M96.9,174.4c0,3.2,3.7,5.9,8.3,5.9l0,0c4.6,0,8.3-2.6,8.3-5.9v-8.9c0-3.2-3.7-5.9-8.3-5.9l0,0
						c-4.6,0-8.3,2.6-8.3,5.9V174.4z"/>
					<path class="st11" d="M96.9,165.5c0-3.2,3.7-5.9,8.3-5.9c4.6,0,8.3,2.6,8.3,5.9v4.8c-5.6,0-11.1-0.1-16.6-0.3V165.5z"/>
					<path class="st7" d="M113.5,170.2v4.1c0,3.2-3.7,5.9-8.3,5.9c-4.6,0-8.3-2.6-8.3-5.9V170C102.4,170.1,107.9,170.2,113.5,170.2z
						"/>
					<path class="st12" d="M106.9,224.3c8.6,0,16.7-1.2,23.8-3.2c-0.4,22.8-10,21.1-25.6,21.1c-15.8,0-25.4,1.7-25.6-22.2
						C87.5,222.7,96.9,224.3,106.9,224.3z"/>
					<path class="st13" d="M67.6,258.2c24.7,3.1,50.2,3.1,74.9,0c-4-12.2-8.4-23.4-12.2-34.9c-17,2.1-33.5,1.1-50.4-1
						C76.1,233.8,71.6,246,67.6,258.2z"/>
					<path class="st14" d="M69.1,253.7c23.8,2.6,48.2,2.6,71.9,0c-3.4-10.4-7.3-20.2-10.7-30.6c-17,1.9-33.5,1-50.4-0.9
						C76.4,232.6,72.5,243.3,69.1,253.7z"/>
					<g>
						<path class="st15" d="M83.9,255c14,2.7,28.3,2.7,42.3,0c-2-10.8-4.3-28.8-6.3-30.3c-10,0.3-19.7,0.1-29.6-0.1
							C88.2,226,85.9,244.2,83.9,255z"/>
						<path class="st14" d="M95.9,256.7c6,1.4,12.3,1.4,18.3,0c-0.9-11.6-1.9-30.5-2.7-31.9c-4.3,0.3-8.5,0.1-12.8-0.1
							C97.8,226.1,96.8,245.1,95.9,256.7z"/>
					</g>
				</g>
			</g>
			<line class="st16" x1="105.2" y1="182.1" x2="105.2" y2="224.4"/>
			<circle class="st5" cx="105.2" cy="189.4" r="1.3"/>
			<circle class="st5" cx="105.2" cy="198.3" r="1.3"/>
			<circle class="st5" cx="105.2" cy="207.1" r="1.3"/>
			<circle class="st5" cx="105.2" cy="215.9" r="1.3"/>
			<path class="st13" d="M107,227.1c-10,0-19.3-1.4-27.3-3.8c0-1-0.1-2.1-0.1-3.3c7.9,2.7,17.3,4.3,27.3,4.3
				c8.6,0,16.7-1.2,23.8-3.2c0,1.1-0.1,2.2-0.1,3.2C123.5,226.1,115.5,227.1,107,227.1z"/>
		</g>
		<g>
			<path class="st17" d="M146.3,88.7c9.3,7.3,31.3,57,39,39.3c10.3,11.7-11.7,44-32,24"/>
			<path class="st17" d="M142.7,119.3c3.5,7.5,1.7,45.2,12,36.6c2.8,10.5-21,23.7-27.4,4.9"/>
			<path class="st17" d="M68.1,123.3c-3.5,7.5-1.7,45.2-12,36.6c-2.8,10.5,21,23.7,27.4,4.9"/>
			<path class="st17" d="M67,87.4c-9.3,7.3-31.3,57-39,39.3c-10.3,11.7,11.7,44,32,24"/>
			<path class="st18" d="M170.7,112.1c0,5.4,4.4,9.8,9.8,9.8l0,0c5.4,0,9.8-4.4,9.8-9.8v-11.9c0-5.4-4.4-9.8-9.8-9.8l0,0
				c-5.4,0-9.8,4.4-9.8,9.8V112.1z"/>
			<path class="st18" d="M20.1,112.1c0,5.4,4.4,9.8,9.8,9.8l0,0c5.4,0,9.8-4.4,9.8-9.8v-11.9c0-5.4-4.4-9.8-9.8-9.8l0,0
				c-5.4,0-9.8,4.4-9.8,9.8V112.1z"/>
			<path class="st7" d="M186.6,116v-11.9c0-5.4-4.2-9.8-9.4-9.8c-2.2,0-4.2,0.8-5.8,2.1c1.5-3.6,5-6.1,9.1-6.1
				c5.4,0,9.8,4.4,9.8,9.8v11.9c0,3.5-1.9,6.6-4.7,8.3C186.2,119.1,186.6,117.6,186.6,116z"/>
			<path class="st7" d="M29.9,90.4c4.1,0,7.6,2.5,9.1,6.1c-1.6-1.3-3.6-2.1-5.8-2.1c-5.2,0-9.4,4.4-9.4,9.8V116c0,1.6,0.4,3,1,4.3
				c-2.8-1.7-4.7-4.8-4.7-8.3v-11.9C20.1,94.7,24.5,90.4,29.9,90.4z"/>
			<path class="st7" d="M36.7,107.5c0,31.7,25.7,57.4,57.4,57.4h22.1c31.7,0,57.4-25.7,57.4-57.4V64.1c0-31.7-25.7-57.4-57.4-57.4
				H94.1c-31.7,0-57.4,25.7-57.4,57.4V107.5z"/>
			<path class="st18" d="M94.1,155.3h22.1c31.7,0,57.4-25.7,57.4-57.4v9.6c0,31.7-25.7,57.4-57.4,57.4H94.1
				c-31.7,0-57.4-25.7-57.4-57.4v-9.6C36.7,129.6,62.4,155.3,94.1,155.3z"/>
			<path class="st11" d="M112.7,122.4c0.8,1.7-0.1,3.4-2,3.7l-3,0.5c-1.9,0.3-3.3-1-3.1-2.9l1.1-12.8c0.2-1.9,0.9-2,1.7-0.3
				L112.7,122.4z"/>
			<ellipse class="st3" cx="139.2" cy="114.7" rx="6.9" ry="10.7"/>
			<ellipse class="st19" cx="138" cy="114.7" rx="5.7" ry="8.9"/>
			<ellipse class="st20" cx="138" cy="114.7" rx="4" ry="6.2"/>
			<ellipse class="st3" cx="135.5" cy="111.4" rx="1.1" ry="1.7"/>
			<g>
				<path class="st17" d="M133.7,90.3c0,0,0-0.2,0-0.5c0-0.2,0-0.4,0.1-0.6c0.1-0.2,0.1-0.5,0.3-0.8c0.3-0.5,0.7-1.1,1.4-1.6
					c0.2-0.1,0.4-0.2,0.5-0.3c0.2-0.1,0.4-0.2,0.6-0.3c0.4-0.2,0.9-0.2,1.4-0.2l0.2,0l0,0l0.1,0l0.1,0l0.3,0l0.1,0l0.2,0l0.4,0.1
					l0.4,0.1l0.3,0.2c0.2,0.1,0.4,0.2,0.5,0.3c0.7,0.5,1.1,1.1,1.4,1.6c0.1,0.3,0.2,0.5,0.3,0.8c0.1,0.2,0.1,0.4,0.1,0.6
					c0,0.3,0,0.6,0,0.6s-0.2-0.1-0.5-0.2c-0.1-0.1-0.3-0.2-0.5-0.3c-0.2-0.1-0.4-0.2-0.6-0.3c-0.2-0.1-0.4-0.2-0.7-0.3
					c-0.2-0.1-0.5-0.2-0.7-0.3c-0.1,0-0.2,0-0.3-0.1c-0.1,0-0.2-0.1-0.3-0.1c0,0-0.1,0-0.1,0c0,0,0,0-0.1,0l-0.1,0l-0.3,0l-0.1,0
					l-0.1,0l0,0l0,0h0l0,0c0.1,0-0.1,0,0.1,0c-0.2,0-0.4,0-0.6,0.1c-0.2,0-0.4,0.1-0.7,0.1c-0.2,0.1-0.5,0.1-0.7,0.3
					c-0.2,0.1-0.5,0.2-0.7,0.3c-0.2,0.1-0.4,0.2-0.6,0.3c-0.2,0.1-0.4,0.2-0.5,0.3C133.9,90.2,133.7,90.3,133.7,90.3z"/>
			</g>
			<ellipse class="st3" cx="71.2" cy="114.7" rx="6.9" ry="10.7"/>
			<ellipse class="st19" cx="72.4" cy="114.7" rx="5.7" ry="8.9"/>
			<ellipse class="st20" cx="72.4" cy="114.7" rx="4" ry="6.2"/>
			<ellipse class="st3" cx="69.9" cy="111.4" rx="1.1" ry="1.7"/>
			<g>
				<path class="st17" d="M68.1,90.3c0,0,0-0.2,0-0.5c0-0.2,0-0.4,0.1-0.6c0.1-0.2,0.1-0.5,0.3-0.8c0.3-0.5,0.7-1.1,1.4-1.6
					c0.2-0.1,0.4-0.2,0.5-0.3c0.2-0.1,0.4-0.2,0.6-0.3c0.4-0.2,0.9-0.2,1.4-0.2l0.2,0l0,0l0.1,0l0.1,0l0.3,0l0.1,0l0.2,0l0.4,0.1
					l0.4,0.1l0.3,0.2c0.2,0.1,0.4,0.2,0.5,0.3c0.7,0.5,1.1,1.1,1.4,1.6c0.1,0.3,0.2,0.5,0.3,0.8c0.1,0.2,0.1,0.4,0.1,0.6
					c0,0.3,0,0.6,0,0.6s-0.2-0.1-0.5-0.2c-0.1-0.1-0.3-0.2-0.5-0.3c-0.2-0.1-0.4-0.2-0.6-0.3c-0.2-0.1-0.4-0.2-0.7-0.3
					c-0.2-0.1-0.5-0.2-0.7-0.3c-0.1,0-0.2,0-0.3-0.1c-0.1,0-0.2-0.1-0.3-0.1c0,0-0.1,0-0.1,0c0,0,0,0-0.1,0l-0.1,0l-0.3,0l-0.1,0
					l-0.1,0l0,0l0,0h0l0,0c0.1,0-0.1,0,0.1,0c-0.2,0-0.4,0-0.6,0.1c-0.2,0-0.4,0.1-0.7,0.1c-0.2,0.1-0.5,0.1-0.7,0.3
					c-0.2,0.1-0.5,0.2-0.7,0.3c-0.2,0.1-0.4,0.2-0.6,0.3c-0.2,0.1-0.4,0.2-0.5,0.3C68.3,90.2,68.1,90.3,68.1,90.3z"/>
			</g>
			<g>
				<g>
					<path class="st21" d="M96.4,137.1c-0.7,2.6,4,9.3,12.1,10.6c8.3,1.3,13.2-6.4,10.5-12.8c-2.3-6.4-4.9-0.4-11.1,0.7
						C101.8,136.7,97,134.1,96.4,137.1z"/>
					<g>
						<path class="st3" d="M96.6,136.5c1.2-2,5.7,0.1,11.2-0.8c5.6-1,8.4-6.1,10.5-2c-2.4,2.5-6.1,4.4-10.4,4.8
							C103.7,138.9,99.7,137.9,96.6,136.5z"/>
					</g>
				</g>
				<path class="st22" d="M110.2,142.2c3.1,0,5.8,0.8,7.7,2c-1.9,2.6-5.2,4.3-9.5,3.6c-2.8-0.5-5.1-1.6-7-2.9
					C103.3,143.3,106.6,142.2,110.2,142.2z"/>
				<path class="st23" d="M96.4,137.1c-0.7,2.6,4,9.3,12.1,10.6c8.3,1.3,13.2-6.4,10.5-12.8c-2.3-6.4-4.9-0.4-11.1,0.7
					C101.8,136.7,97,134.1,96.4,137.1z"/>
			</g>
			<path class="st17" d="M176.6,97.7c-3.2,13.8-20.7-35-40.4-35.4c-3.6,3.4-3.6,18-3.6,18s-22-8.7-35.3-28.3
				c-4.3,8.7,0.3,31.7,0.3,31.7S70.8,75.8,58,57.8C36.6,72,39.6,117.7,33,102.4C12.3,33,47.5-1.1,110,0
				C186.5,1.4,185.6,59,176.6,97.7z"/>
			<path class="st17" d="M41.6,23.7c-9.3,7.3-31.3,57-39,39.3c-10.3,11.7,11.7,44,32,24"/>
			<path class="st17" d="M168.9,23.7c9.3,7.3,31.3,57,39,39.3c10.3,11.7-11.7,44-32,24"/>
			<circle class="st24" cx="35.6" cy="33.7" r="8.7"/>
			
				<rect x="30.5" y="35.9" transform="matrix(0.8465 0.5324 -0.5324 0.8465 28.1457 -17.4672)" class="st24" width="27.7" height="8.3"/>
			<g>
				<path class="st25" d="M96.4,30.4c0,0,0.1,0.2,0.4,0.5c0.2,0.3,0.6,0.8,1,1.4c0.9,1.2,2,2.9,3.4,5c1.4,2,2.9,4.4,4.6,7
					c0.8,1.3,1.7,2.5,2.6,3.9c0.9,1.3,1.8,2.6,2.7,3.9c0.9,1.3,1.9,2.6,2.8,3.8c0.5,0.6,1,1.2,1.4,1.8c0.5,0.6,1,1.2,1.4,1.8
					c1.9,2.3,3.7,4.4,5.4,6.1c0.9,0.8,1.6,1.6,2.4,2.3c0.7,0.7,1.4,1.2,1.9,1.7c1.1,0.9,1.8,1.5,1.8,1.5s-0.2,0-0.6-0.1
					c-0.4-0.1-1-0.1-1.7-0.3c-0.7-0.2-1.6-0.4-2.6-0.8c-0.5-0.2-1-0.4-1.6-0.6c-0.5-0.3-1.1-0.5-1.7-0.8c-1.1-0.6-2.4-1.4-3.6-2.2
					c-1.2-0.9-2.4-1.9-3.6-3c-2.4-2.2-4.7-4.8-6.7-7.6c-2-2.8-3.7-5.8-5.1-8.6c-1.4-2.9-2.4-5.7-3.2-8.1c-0.7-2.4-1.2-4.5-1.4-6
					C96.5,31.2,96.4,30.4,96.4,30.4z"/>
			</g>
			<g>
				<path class="st25" d="M67.8,31.7c0,0,0,0.2,0,0.6c0,0.4,0,0.9,0.1,1.6c0,0.7,0.1,1.6,0.1,2.5c0.1,1,0.2,2,0.3,3.2
					c0.1,1.2,0.3,2.4,0.5,3.7c0.2,1.3,0.5,2.6,0.8,4c0.3,1.3,0.7,2.7,1.2,4.1c0.5,1.4,1,2.7,1.6,4c0.3,0.7,0.6,1.3,0.9,2l0.5,1
					l0.5,0.9c0.7,1.2,1.5,2.4,2.3,3.6c0.8,1.1,1.6,2.2,2.5,3.2c0.2,0.3,0.4,0.5,0.6,0.7c0.2,0.2,0.4,0.5,0.6,0.7
					c0.4,0.5,0.8,0.9,1.2,1.3c0.8,0.8,1.5,1.6,2.2,2.3c0.7,0.7,1.3,1.3,1.8,1.8c0.5,0.5,0.9,0.9,1.2,1.2c0.3,0.3,0.4,0.4,0.4,0.4
					s-0.2,0-0.6-0.1c-0.4-0.1-0.9-0.2-1.6-0.4c-0.7-0.2-1.5-0.5-2.5-0.9c-1-0.3-2-0.9-3.1-1.5c-1.1-0.6-2.3-1.3-3.4-2.2
					c-1.2-0.9-2.3-1.9-3.4-3.1c-0.5-0.6-1.1-1.2-1.6-1.8c-0.5-0.6-1.1-1.3-1.5-2c-0.5-0.7-1-1.4-1.3-2.2c-0.4-0.7-0.8-1.5-1.2-2.3
					c-0.4-0.8-0.6-1.6-1-2.4c-0.3-0.8-0.5-1.6-0.7-2.5c-0.2-0.8-0.4-1.6-0.5-2.5c-0.2-0.8-0.2-1.6-0.3-2.4c-0.1-1.6-0.1-3.1,0-4.6
					c0.1-1.4,0.3-2.8,0.5-4c0.5-2.5,1.2-4.4,1.8-5.7C67.3,32.4,67.8,31.7,67.8,31.7z"/>
			</g>
			<g>
				<path class="st25" d="M153.8,35c0,0,0.2,0.3,0.5,0.8c0.3,0.5,0.8,1.3,1.3,2.2c1.1,1.9,2.7,4.6,4.6,7.9c1.9,3.3,4.1,7,6.6,10.9
					c1.2,2,2.5,4,3.9,6c1.4,2,2.8,4,4.3,5.9c1.5,1.9,3.1,3.7,4.7,5.3c1.6,1.6,3.3,3.1,5.1,4.2c0.9,0.6,1.8,1,2.7,1.4
					c0.9,0.4,1.8,0.7,2.7,0.9c1.8,0.4,3.6,0.3,5.2-0.1c1.6-0.4,3.1-1,4.4-1.8c1.3-0.7,2.4-1.5,3.2-2.1c0.4-0.3,0.8-0.6,1.2-0.9
					c0.3-0.3,0.6-0.5,0.8-0.7c0.5-0.4,0.7-0.6,0.7-0.6s-0.2,0.3-0.5,0.8c-0.3,0.5-0.7,1.3-1.4,2.2c-0.3,0.5-0.7,0.9-1.2,1.5
					c-0.5,0.5-1,1.1-1.6,1.6c-1.2,1.1-2.7,2.3-4.6,3.2c-1.9,0.9-4.3,1.4-6.9,1.3c-1.3-0.1-2.5-0.3-3.8-0.7c-1.2-0.4-2.5-0.9-3.7-1.5
					c-1.2-0.6-2.3-1.3-3.4-2.1c-1.1-0.8-2.1-1.6-3.1-2.5c-2-1.8-3.8-3.8-5.4-5.8c-1.6-2.1-3.1-4.2-4.5-6.4c-1.4-2.2-2.6-4.4-3.7-6.5
					c-2.2-4.3-3.9-8.5-5.2-12.1c-1.3-3.6-2.1-6.7-2.6-8.9c-0.3-1.1-0.4-2-0.5-2.5C153.8,35.3,153.8,35,153.8,35z"/>
			</g>
			
				<ellipse transform="matrix(0.9569 0.2904 -0.2904 0.9569 10.4795 -36.5641)" class="st25" cx="128.4" cy="17" rx="25.3" ry="10.7"/>
		</g>
	</g>
</g>
<g id="DESIGNED_BY_FREEPIK">
	<g>
	</g>
	<g>
	</g>
	<g>
	</g>
	<g>
	</g>
	<g>
	</g>
	<g>
	</g>
</g>
</svg>
