<?xml version="1.0" encoding="utf-8"?>
<!-- Generator: Adobe Illustrator 19.0.0, SVG Export Plug-In . SVG Version: 6.00 Build 0)  -->
<svg version="1.1" id="Capa_1" xmlns="http://www.w3.org/2000/svg" xmlns:xlink="http://www.w3.org/1999/xlink" x="0px" y="0px"
	 viewBox="8 390.1 189.5 61.8" style="enable-background:new 8 390.1 189.5 61.8;" xml:space="preserve">
<style type="text/css">
	.st0{fill:#B9181A;}
	.st1{fill:#0787C9;}
	.st2{fill:#FFFFFF;}
	.st3{enable-background:new    ;}
</style>
<g id="XMLID_51_">
	<g id="XMLID_40_">
		<path id="XMLID_48_" class="st0" d="M54,390.1c0,0-2.1,4.8-21.9,4.8c-19.9,0.1-22.5,5.2-22.7,5.4c-0.2,0.2-1.4,1.3-1.3,7.3
			s1.1,14.9,3.6,20.6c2.5,5.7,4.8,10.1,8.7,14s10.7,9.7,10.7,9.7s10.7-7.9,14.7-15.1c4-7.2,3.6-4.6,7.1-18.2
			C52.8,418.7,54.8,404.1,54,390.1z"/>
		<path id="XMLID_46_" class="st1" d="M52.1,393.7c0,0-1.8,3.1-20.1,3.1s-20.8,4.8-21,5c-0.2,0.3-1.3,1.3-1.3,6.8s1,13.8,3.3,19.1
			c2.3,5.3,4.5,9.4,8.1,12.9c3.6,3.6,9.9,9,9.9,9s9.9-7.4,13.6-14s3.3-4.3,6.6-16.8C51.2,418.8,52.8,406.7,52.1,393.7z"/>
		<path id="XMLID_45_" class="st0" d="M12.1,401.7c0,0,7.6,6.7,12.5,18.9l3.8,0.6l-2.8,1l1.3,2.3l3.5-0.8l-3,1.8c0,0,4,9.1,11.3,6.8
			c0,0,5.3,4.2,3.6,6.9l5.8-8.3c0,0-3.5,5.1-5.5,2.5l-3-3c0,0,3.7-3.4-3.2-11.8l-1.6,6c0,0,1-6.1-0.3-7.5
			C33.2,415.7,22,404.7,12.1,401.7z"/>
		<path id="XMLID_44_" class="st2" d="M36.6,422l-1.5,3.1l4.3,4.8C39.4,429.9,41.3,425.5,36.6,422z"/>
		<path id="XMLID_43_" class="st2" d="M29.6,425.6l2.1-2.3c-0.4-0.2,5,7.1,7,8.7C38.8,432.1,34,432.9,29.6,425.6z"/>
		<path id="XMLID_42_" class="st2" d="M18.2,405.4c0,0,8.1,6.3,16.4,19.5c0,0,0.3-6.8-3.4-9.8S19.1,405.7,18.2,405.4z"/>
		<path id="XMLID_41_" class="st2" d="M15.4,404.1c0,0,7.8,8.2,10.5,15.7l3.8,1.3l-2.6,1l0.7,1.1l3.7-0.3c0,0-4.1-6.5-6.7-9.4
			S18.7,406,15.4,404.1z"/>
	</g>
	<g class="st3">
		<path class="st2" d="M67.5,408.4c0,2.5-1.9,3.9-5.2,3.9h-0.4v2.4c0,0.5,0,1.3,0.3,2c-0.2,0.2-0.6,0.5-1.2,0.5
			c-0.7,0-1.2-0.4-1.2-1.1v-8.7c0-0.5,0-1.4-0.3-2.1c0.6-0.3,1.5-0.5,2.9-0.5C65.7,404.9,67.5,405.9,67.5,408.4z M65.2,408.5
			c0-1.8-0.7-2.9-2.8-2.9c-0.2,0-0.4,0-0.6,0v5.9h0.4C64.4,411.6,65.2,410.4,65.2,408.5z"/>
		<path class="st2" d="M75.7,409.9c0,0.8-0.6,1.4-1.3,1.5c-0.4,0-0.7-0.1-0.9-0.3c0.3-0.4,0.3-0.7,0.3-1.2c0-0.6-0.3-0.9-0.8-0.9
			c-0.8,0-1.5,1.2-1.5,4c0,2.3,0,2.9,0.3,3.8c-0.2,0.2-0.6,0.4-1.2,0.4c-0.6,0-1.2-0.4-1.2-1.2v-5.6c0-0.6-0.2-0.9-0.5-0.9
			c-0.1,0-0.3,0-0.4,0.2c-0.1-0.2-0.2-0.4-0.2-0.7c0-0.6,0.4-1.1,1.3-1.1c0.9,0,1.5,0.6,1.6,1.9c0.4-1.2,1.1-1.9,2.2-1.9
			C74.8,408,75.7,408.7,75.7,409.9z"/>
		<path class="st2" d="M84,415.5c-0.4,1.1-1.6,1.7-3.2,1.7c-2.6,0-4.2-1.6-4.2-4.6c0-2.8,1.5-4.6,4.3-4.6c1.9,0,3.4,0.9,3.4,2.5
			c0,1.7-1.5,2.6-3.7,2.6c-0.6,0-1.1,0-1.7-0.1c0.2,2.1,1.1,2.9,2.6,2.9c1.2,0,2.1-0.6,2.5-1.4C84.1,414.7,84.2,414.9,84,415.5z
			 M78.7,412.3c0.2,0,0.4,0,0.6,0c1.2,0,2.7-0.2,2.7-2.1c0-1.2-0.6-1.5-1.3-1.5C79.5,408.7,78.7,410,78.7,412.3z"/>
		<path class="st2" d="M92.8,415.5c-0.4,1.1-1.6,1.7-3.2,1.7c-2.6,0-4.2-1.6-4.2-4.6c0-2.8,1.5-4.6,4.3-4.6c1.9,0,3.4,0.9,3.4,2.5
			c0,1.7-1.5,2.6-3.7,2.6c-0.6,0-1.1,0-1.7-0.1c0.2,2.1,1.1,2.9,2.6,2.9c1.2,0,2.1-0.6,2.5-1.4C92.9,414.7,93.1,414.9,92.8,415.5z
			 M87.6,412.3c0.2,0,0.4,0,0.6,0c1.2,0,2.7-0.2,2.7-2.1c0-1.2-0.6-1.5-1.3-1.5C88.4,408.7,87.6,410,87.6,412.3z"/>
		<path class="st2" d="M94.2,415.2c0-0.6,0.4-1.3,1.5-1.1c-0.1,0.3-0.1,0.6,0,0.9c0.1,0.8,0.7,1.5,2,1.5c1,0,1.7-0.3,1.7-1.1
			c0-0.9-1-1.3-2.1-1.8c-1.3-0.6-2.8-1.3-2.8-3.1c0-1.7,1.5-2.4,3.3-2.4c1.8,0,3.1,0.6,3.1,1.7c0,0.5-0.2,1-1,1c-0.2,0-0.4,0-0.6,0
			c0-0.3,0-0.6-0.1-0.9c-0.2-0.6-0.7-1-1.5-1c-0.7,0-1.4,0.3-1.4,1c0,1,1,1.4,2.1,2c1.3,0.6,2.8,1.3,2.8,2.9c0,1.3-1,2.7-3.8,2.7
			C95.3,417.2,94.2,416.4,94.2,415.2z"/>
		<path class="st2" d="M102.4,412.6c0-2.9,1.5-4.6,4.3-4.6c2,0,3.1,1,3.1,2.2c0,0.9-0.6,1.4-1.4,1.4c-0.4,0-0.9-0.1-1.1-0.4
			c0.3-0.3,0.5-0.7,0.5-1.2c0-0.9-0.5-1.3-1.2-1.3c-1.2,0-2,1.3-2,3.6c0,2.6,1,3.7,2.6,3.7c1.2,0,2.1-0.6,2.3-1.6
			c0.2,0.1,0.4,0.4,0.2,1c-0.3,1.2-1.6,1.9-3.2,1.9C103.9,417.2,102.4,415.6,102.4,412.6z"/>
		<path class="st2" d="M111.1,412.6c0-2.9,1.5-4.6,4.1-4.6c2.6,0,4.1,1.7,4.1,4.6s-1.5,4.6-4.1,4.6
			C112.6,417.2,111.1,415.5,111.1,412.6z M117.1,412.6c0-2.5-0.6-3.9-1.9-3.9c-1.3,0-2,1.3-2,3.9s0.6,3.9,2,3.9
			C116.5,416.5,117.1,415.1,117.1,412.6z"/>
		<path class="st2" d="M121.1,414.9v-9.3c0-0.7,0.5-1.1,1.2-1.1c0.6,0,1,0.3,1.1,0.4c-0.3,0.9-0.3,1.8-0.3,3.3l0,6.4
			c0,0.6,0.2,0.9,0.6,0.9c0.2,0,0.4-0.1,0.5-0.3c0.2,0.2,0.2,0.5,0.2,0.7c0,0.6-0.7,1.1-1.4,1.1
			C121.8,417.1,121.1,416.3,121.1,414.9z"/>
		<path class="st2" d="M134.2,416c0,0.6-0.6,1.1-1.5,1.1c-1.1,0-1.7-0.6-1.8-2.3c-0.6,1.4-1.8,2.3-3.4,2.3c-1.3,0-2.2-0.7-2.2-2
			c0-1.6,1.4-2.4,2.9-2.8c0.9-0.3,1.8-0.3,2.5-0.3v-0.4c0-1.9-0.4-2.8-1.6-2.8c-0.7,0-1.3,0.3-1.3,1.3c0,0.4,0.1,1,0.6,1.2
			c-0.2,0.3-0.7,0.4-1.1,0.4c-1,0-1.6-0.7-1.6-1.5c0-1.4,1.4-2.1,3.5-2.1c2.5,0,3.6,1.1,3.6,3.7v3c0,0.6,0.2,0.9,0.6,0.9
			c0.1,0,0.4-0.1,0.5-0.3C134.1,415.6,134.2,415.8,134.2,416z M130.9,412.7c-0.7,0-1.6,0.1-2.2,0.4c-0.7,0.3-1.1,0.9-1.1,1.6
			c0,0.6,0.3,1.2,1,1.1C129.7,415.7,130.9,414.4,130.9,412.7z"/>
		<path class="st2" d="M141.9,409.9c0,0.8-0.6,1.4-1.3,1.5c-0.4,0-0.7-0.1-0.9-0.3c0.3-0.4,0.3-0.7,0.3-1.2c0-0.6-0.3-0.9-0.8-0.9
			c-0.8,0-1.5,1.2-1.5,4c0,2.3,0,2.9,0.3,3.8c-0.2,0.2-0.6,0.4-1.2,0.4c-0.6,0-1.2-0.4-1.2-1.2v-5.6c0-0.6-0.2-0.9-0.5-0.9
			c-0.1,0-0.3,0-0.4,0.2c-0.1-0.2-0.2-0.4-0.2-0.7c0-0.6,0.4-1.1,1.3-1.1c0.9,0,1.5,0.6,1.6,1.9c0.4-1.2,1.1-1.9,2.2-1.9
			C141,408,141.9,408.7,141.9,409.9z"/>
		<path class="st2" d="M146.7,411.1c0-3.9,1.8-6.2,4.8-6.2c1.8,0,3.7,0.7,3.7,1.9c0,0.6-0.6,1.2-1.6,1.2c-0.2-1.6-0.9-2.4-2-2.4
			c-1.8,0-2.6,1.8-2.6,5.4c0,3.6,0.8,5.4,2.6,5.4c1.2,0,2.1-0.8,2.3-2.6c0.8-0.1,1.7,0.2,1.7,1c0,1.5-2.1,2.3-4.1,2.3
			C148.4,417.2,146.7,415,146.7,411.1z"/>
		<path class="st2" d="M165.6,416c0,0.6-0.6,1.1-1.5,1.1c-1.1,0-1.7-0.6-1.8-2.3c-0.6,1.4-1.8,2.3-3.4,2.3c-1.3,0-2.2-0.7-2.2-2
			c0-1.6,1.4-2.4,2.9-2.8c0.9-0.3,1.8-0.3,2.5-0.3v-0.4c0-1.9-0.4-2.8-1.6-2.8c-0.7,0-1.3,0.3-1.3,1.3c0,0.4,0.1,1,0.6,1.2
			c-0.2,0.3-0.7,0.4-1.1,0.4c-1,0-1.6-0.7-1.6-1.5c0-1.4,1.4-2.1,3.5-2.1c2.5,0,3.6,1.1,3.6,3.7v3c0,0.6,0.2,0.9,0.6,0.9
			c0.1,0,0.4-0.1,0.5-0.3C165.6,415.6,165.6,415.8,165.6,416z M162.4,412.7c-0.7,0-1.6,0.1-2.2,0.4c-0.7,0.3-1.1,0.9-1.1,1.6
			c0,0.6,0.3,1.2,1,1.1C161.1,415.7,162.3,414.4,162.4,412.7z"/>
		<path class="st2" d="M173.3,409.9c0,0.8-0.6,1.4-1.3,1.5c-0.4,0-0.7-0.1-0.9-0.3c0.3-0.4,0.3-0.7,0.3-1.2c0-0.6-0.3-0.9-0.8-0.9
			c-0.9,0-1.5,1.2-1.5,4c0,2.3,0,2.9,0.3,3.8c-0.2,0.2-0.6,0.4-1.2,0.4c-0.6,0-1.2-0.4-1.2-1.2v-5.6c0-0.6-0.2-0.9-0.5-0.9
			c-0.1,0-0.3,0-0.4,0.2c-0.1-0.2-0.2-0.4-0.2-0.7c0-0.6,0.4-1.1,1.3-1.1c0.9,0,1.5,0.6,1.6,1.9c0.4-1.2,1.1-1.9,2.2-1.9
			C172.4,408,173.3,408.7,173.3,409.9z"/>
		<path class="st2" d="M174.8,414.9v-9.3c0-0.7,0.5-1.1,1.2-1.1c0.6,0,1,0.3,1.1,0.4c-0.3,0.9-0.3,1.8-0.3,3.3l0,6.4
			c0,0.6,0.2,0.9,0.6,0.9c0.2,0,0.4-0.1,0.5-0.3c0.2,0.2,0.2,0.5,0.2,0.7c0,0.6-0.7,1.1-1.4,1.1
			C175.5,417.1,174.8,416.3,174.8,414.9z"/>
		<path class="st2" d="M179.1,412.6c0-2.9,1.5-4.6,4.1-4.6c2.6,0,4.1,1.7,4.1,4.6s-1.5,4.6-4.1,4.6
			C180.6,417.2,179.1,415.5,179.1,412.6z M185.1,412.6c0-2.5-0.6-3.9-1.9-3.9c-1.3,0-2,1.3-2,3.9s0.6,3.9,2,3.9
			C184.5,416.5,185.1,415.1,185.1,412.6z"/>
		<path class="st2" d="M188.5,415.2c0-0.6,0.4-1.3,1.5-1.1c-0.1,0.3-0.1,0.6,0,0.9c0.1,0.8,0.7,1.5,2,1.5c1,0,1.7-0.3,1.7-1.1
			c0-0.9-1-1.3-2.1-1.8c-1.3-0.6-2.8-1.3-2.8-3.1c0-1.7,1.5-2.4,3.3-2.4c1.8,0,3.1,0.6,3.1,1.7c0,0.5-0.2,1-1,1c-0.2,0-0.4,0-0.6,0
			c0-0.3,0-0.6-0.1-0.9c-0.2-0.6-0.7-1-1.5-1c-0.7,0-1.4,0.3-1.4,1c0,1,1,1.4,2.1,2c1.3,0.6,2.8,1.3,2.8,2.9c0,1.3-1,2.7-3.8,2.7
			C189.5,417.2,188.5,416.4,188.5,415.2z"/>
	</g>
	<g class="st3">
		<path class="st2" d="M67.5,428.4c0,2.5-1.9,3.9-5.2,3.9h-0.4v2.4c0,0.5,0,1.3,0.3,2c-0.2,0.2-0.6,0.5-1.2,0.5
			c-0.7,0-1.2-0.4-1.2-1.1v-8.7c0-0.5,0-1.4-0.3-2.1c0.6-0.3,1.5-0.5,2.9-0.5C65.7,424.9,67.5,425.9,67.5,428.4z M65.2,428.5
			c0-1.8-0.7-2.9-2.8-2.9c-0.2,0-0.4,0-0.6,0v5.9h0.4C64.4,431.6,65.2,430.4,65.2,428.5z"/>
		<path class="st2" d="M76.1,435.5c-0.4,1.1-1.6,1.7-3.2,1.7c-2.6,0-4.2-1.6-4.2-4.6c0-2.8,1.5-4.6,4.3-4.6c1.9,0,3.4,0.9,3.4,2.5
			c0,1.7-1.5,2.6-3.7,2.6c-0.6,0-1.1,0-1.7-0.1c0.2,2.1,1.1,2.9,2.6,2.9c1.2,0,2.1-0.6,2.5-1.4C76.2,434.7,76.4,434.9,76.1,435.5z
			 M70.9,432.3c0.2,0,0.4,0,0.6,0c1.2,0,2.7-0.2,2.7-2.1c0-1.2-0.6-1.5-1.3-1.5C71.6,428.7,70.9,430,70.9,432.3z"/>
		<path class="st2" d="M78.1,434.9v-9.3c0-0.7,0.5-1.1,1.2-1.1c0.6,0,1,0.3,1.1,0.4c-0.3,0.9-0.3,1.8-0.3,3.3l0,6.4
			c0,0.6,0.2,0.9,0.6,0.9c0.2,0,0.4-0.1,0.5-0.3c0.2,0.2,0.2,0.5,0.2,0.7c0,0.6-0.7,1.1-1.4,1.1C78.8,437.1,78.1,436.3,78.1,434.9z"
			/>
		<path class="st2" d="M83,434.9v-9.3c0-0.7,0.5-1.1,1.2-1.1c0.6,0,1,0.3,1.1,0.4c-0.3,0.9-0.3,1.8-0.3,3.3l0,6.4
			c0,0.6,0.2,0.9,0.6,0.9c0.2,0,0.4-0.1,0.5-0.3c0.2,0.2,0.2,0.5,0.2,0.7c0,0.6-0.7,1.1-1.4,1.1C83.7,437.1,83,436.3,83,434.9z"/>
		<path class="st2" d="M90.3,436.7c-0.2,0.2-0.6,0.5-1.2,0.5c-0.6,0-1.1-0.4-1.1-1.1l0-5.6c0-0.6-0.1-1.4-0.3-2.1
			c0.2-0.2,0.6-0.4,1.1-0.4c0.7,0,1.1,0.4,1.1,1.1l0,5.6C90,435.3,90,436.1,90.3,436.7z M87.7,425.9c0-0.7,0.5-1.2,1.2-1.2
			s1.2,0.5,1.2,1.2c0,0.6-0.5,1.2-1.2,1.2S87.7,426.5,87.7,425.9z"/>
		<path class="st2" d="M91.9,432.6c0-2.9,1.5-4.6,4.3-4.6c2,0,3.1,1,3.1,2.2c0,0.9-0.6,1.4-1.4,1.4c-0.4,0-0.9-0.1-1.1-0.4
			c0.3-0.3,0.5-0.7,0.5-1.2c0-0.9-0.5-1.3-1.2-1.3c-1.2,0-2,1.3-2,3.6c0,2.6,1,3.7,2.6,3.7c1.2,0,2.1-0.6,2.3-1.6
			c0.2,0.1,0.4,0.4,0.2,1c-0.3,1.2-1.6,1.9-3.2,1.9C93.4,437.2,91.9,435.6,91.9,432.6z"/>
		<path class="st2" d="M107.9,435.5c-0.4,1.1-1.6,1.7-3.2,1.7c-2.6,0-4.2-1.6-4.2-4.6c0-2.8,1.5-4.6,4.3-4.6c1.9,0,3.4,0.9,3.4,2.5
			c0,1.7-1.5,2.6-3.7,2.6c-0.6,0-1.1,0-1.7-0.1c0.2,2.1,1.1,2.9,2.6,2.9c1.2,0,2.1-0.6,2.5-1.4C108,434.7,108.2,434.9,107.9,435.5z
			 M102.7,432.3c0.2,0,0.4,0,0.6,0c1.2,0,2.7-0.2,2.7-2.1c0-1.2-0.6-1.5-1.3-1.5C103.5,428.7,102.7,430,102.7,432.3z"/>
		<path class="st2" d="M116.4,429.9c0,0.8-0.6,1.4-1.3,1.5c-0.4,0-0.7-0.1-0.9-0.3c0.3-0.4,0.3-0.7,0.3-1.2c0-0.6-0.3-0.9-0.8-0.9
			c-0.8,0-1.5,1.2-1.5,4c0,2.3,0,2.9,0.3,3.8c-0.2,0.2-0.6,0.4-1.2,0.4c-0.6,0-1.2-0.4-1.2-1.2v-5.6c0-0.6-0.2-0.9-0.5-0.9
			c-0.1,0-0.3,0-0.4,0.2c-0.1-0.2-0.2-0.4-0.2-0.7c0-0.6,0.4-1.1,1.3-1.1c0.9,0,1.5,0.6,1.6,1.9c0.4-1.2,1.1-1.9,2.2-1.9
			C115.5,428,116.4,428.7,116.4,429.9z"/>
		<path class="st2" d="M121.2,431.1c0-3.9,1.8-6.2,4.8-6.2c1.8,0,3.7,0.7,3.7,1.9c0,0.6-0.6,1.2-1.6,1.2c-0.2-1.6-0.9-2.4-2-2.4
			c-1.8,0-2.6,1.8-2.6,5.4c0,3.6,0.8,5.4,2.6,5.4c1.2,0,2.1-0.8,2.3-2.6c0.8-0.1,1.7,0.2,1.7,1c0,1.5-2.1,2.3-4.1,2.3
			C122.9,437.2,121.2,435,121.2,431.1z"/>
		<path class="st2" d="M140.1,436c0,0.6-0.6,1.1-1.5,1.1c-1.1,0-1.7-0.6-1.8-2.3c-0.6,1.4-1.8,2.3-3.4,2.3c-1.3,0-2.2-0.7-2.2-2
			c0-1.6,1.4-2.4,2.9-2.8c0.9-0.3,1.8-0.3,2.5-0.3v-0.4c0-1.9-0.4-2.8-1.6-2.8c-0.7,0-1.3,0.3-1.3,1.3c0,0.4,0.1,1,0.6,1.2
			c-0.2,0.3-0.7,0.4-1.1,0.4c-1,0-1.6-0.7-1.6-1.5c0-1.4,1.4-2.1,3.5-2.1c2.5,0,3.6,1.1,3.6,3.7v3c0,0.6,0.2,0.9,0.6,0.9
			c0.1,0,0.4-0.1,0.5-0.3C140.1,435.6,140.1,435.8,140.1,436z M136.8,432.7c-0.7,0-1.6,0.1-2.2,0.4c-0.7,0.3-1.1,0.9-1.1,1.6
			c0,0.6,0.3,1.2,1,1.1C135.6,435.7,136.8,434.4,136.8,432.7z M135.4,427.3c-0.2,0-0.6-0.1-0.7-0.1l1.5-2.7c0.5-0.1,1.6,0.2,1.8,0.4
			L135.4,427.3z"/>
		<path class="st2" d="M154.2,436.7c-0.3,0.2-0.6,0.5-1.2,0.5c-0.7,0-1.2-0.4-1.2-1.1l0-4.4c0-1.5-0.1-2.8-1.2-2.8
			c-0.9,0-1.9,1.2-1.9,3.9v1.8c0,0.5,0.1,1.4,0.3,2.1c-0.3,0.2-0.6,0.5-1.1,0.5c-0.6,0-1.1-0.4-1.1-1.1v-4.4c0-1.8-0.3-2.8-1.3-2.8
			c-1,0-1.8,1.2-1.8,4c0,2.3,0,2.9,0.3,3.8c-0.2,0.2-0.5,0.4-1.2,0.4c-0.7,0-1.2-0.4-1.2-1.2l0-5.6c0-0.6-0.2-0.9-0.5-0.9
			c-0.2,0-0.4,0.1-0.5,0.3c-0.2-0.2-0.2-0.4-0.2-0.7c0-0.7,0.5-1.1,1.3-1.1c1,0,1.6,0.7,1.7,2.1c0.4-1.3,1.3-2.1,2.7-2.1
			c1.4,0,2.1,0.7,2.4,2c0.4-1.2,1.3-2,2.7-2c1.8,0,2.6,1.2,2.6,3.5v3.2C153.9,435.2,154,436.1,154.2,436.7z"/>
		<path class="st2" d="M164.5,436c0,0.6-0.6,1.1-1.5,1.1c-1.1,0-1.7-0.6-1.8-2.3c-0.6,1.4-1.8,2.3-3.4,2.3c-1.3,0-2.2-0.7-2.2-2
			c0-1.6,1.4-2.4,2.9-2.8c0.9-0.3,1.8-0.3,2.5-0.3v-0.4c0-1.9-0.4-2.8-1.6-2.8c-0.7,0-1.3,0.3-1.3,1.3c0,0.4,0.1,1,0.6,1.2
			c-0.2,0.3-0.7,0.4-1.1,0.4c-1,0-1.6-0.7-1.6-1.5c0-1.4,1.4-2.1,3.5-2.1c2.5,0,3.6,1.1,3.6,3.7v3c0,0.6,0.2,0.9,0.6,0.9
			c0.1,0,0.4-0.1,0.5-0.3C164.4,435.6,164.5,435.8,164.5,436z M161.2,432.7c-0.7,0-1.6,0.1-2.2,0.4c-0.7,0.3-1.1,0.9-1.1,1.6
			c0,0.6,0.3,1.2,1,1.1C159.9,435.7,161.2,434.4,161.2,432.7z"/>
		<path class="st2" d="M172.2,429.9c0,0.8-0.6,1.4-1.3,1.5c-0.4,0-0.7-0.1-0.9-0.3c0.3-0.4,0.3-0.7,0.3-1.2c0-0.6-0.3-0.9-0.8-0.9
			c-0.9,0-1.5,1.2-1.5,4c0,2.3,0,2.9,0.3,3.8c-0.2,0.2-0.6,0.4-1.2,0.4c-0.6,0-1.2-0.4-1.2-1.2v-5.6c0-0.6-0.2-0.9-0.5-0.9
			c-0.1,0-0.3,0-0.4,0.2c-0.1-0.2-0.2-0.4-0.2-0.7c0-0.6,0.4-1.1,1.3-1.1c0.9,0,1.5,0.6,1.6,1.9c0.4-1.2,1.1-1.9,2.2-1.9
			C171.3,428,172.2,428.7,172.2,429.9z"/>
		<path class="st2" d="M181.9,436c0,0.6-0.6,1.1-1.5,1.1c-1.1,0-1.7-0.6-1.8-2.3c-0.6,1.4-1.8,2.3-3.4,2.3c-1.3,0-2.2-0.7-2.2-2
			c0-1.6,1.4-2.4,2.9-2.8c0.9-0.3,1.8-0.3,2.5-0.3v-0.4c0-1.9-0.4-2.8-1.6-2.8c-0.7,0-1.3,0.3-1.3,1.3c0,0.4,0.1,1,0.6,1.2
			c-0.2,0.3-0.7,0.4-1.1,0.4c-1,0-1.6-0.7-1.6-1.5c0-1.4,1.4-2.1,3.5-2.1c2.5,0,3.6,1.1,3.6,3.7v3c0,0.6,0.2,0.9,0.6,0.9
			c0.1,0,0.4-0.1,0.5-0.3C181.8,435.6,181.9,435.8,181.9,436z M178.6,432.7c-0.7,0-1.6,0.1-2.2,0.4c-0.7,0.3-1.1,0.9-1.1,1.6
			c0,0.6,0.3,1.2,1,1.1C177.4,435.7,178.6,434.4,178.6,432.7z"/>
	</g>
</g>
</svg>
